Courier Prime.ufo
<glyph name="exclam" format="1">
  <advance width="1228"/>
  <unicode hex="0021"/>
  <outline>
    <contour>
      <point x="549" y="1209" type="line" smooth="yes"/>
      <point x="519" y="1209"/>
      <point x="505" y="1194"/>
      <point x="508" y="1159" type="curve" smooth="yes"/>
      <point x="556" y="512" type="line" smooth="yes"/>
      <point x="558" y="481"/>
      <point x="580" y="464"/>
      <point x="614" y="464" type="curve" smooth="yes"/>
      <point x="649" y="464"/>
      <point x="669" y="481"/>
      <point x="671" y="512" type="curve" smooth="yes"/>
      <point x="720" y="1159" type="line" smooth="yes"/>
      <point x="723" y="1194"/>
      <point x="709" y="1209"/>
      <point x="679" y="1209" type="curve" smooth="yes"/>
    </contour>
    <contour>
      <point x="529" y="286"/>
      <point x="460" y="217"/>
      <point x="460" y="132" type="curve" smooth="yes"/>
      <point x="460" y="47"/>
      <point x="529" y="-22"/>
      <point x="614" y="-22" type="curve" smooth="yes"/>
      <point x="699" y="-22"/>
      <point x="768" y="47"/>
      <point x="768" y="132" type="curve" smooth="yes"/>
      <point x="768" y="217"/>
      <point x="699" y="286"/>
      <point x="614" y="286" type="curve" smooth="yes"/>
    </contour>
  </outline>
</glyph>
<glyph name="numbersign" format="1">
  <advance width="1228"/>
  <unicode hex="0023"/>
  <outline>
    <contour>
      <point x="926" y="1209"/>
      <point x="902" y="1199"/>
      <point x="896" y="1176" type="curve" smooth="yes"/>
      <point x="602" y="45" type="line" smooth="yes"/>
      <point x="591" y="3"/>
      <point x="633" y="-22"/>
      <point x="672" y="-22" type="curve" smooth="yes"/>
      <point x="696" y="-22"/>
      <point x="720" y="-12"/>
      <point x="726" y="11" type="curve" smooth="yes"/>
      <point x="1020" y="1142" type="line" smooth="yes"/>
      <point x="1031" y="1184"/>
      <point x="989" y="1209"/>
      <point x="950" y="1209" type="curve" smooth="yes"/>
    </contour>
    <contour>
      <point x="123" y="476" type="line" smooth="yes"/>
      <point x="78" y="476"/>
      <point x="60" y="456"/>
      <point x="60" y="404" type="curve" smooth="yes"/>
      <point x="60" y="352"/>
      <point x="78" y="332"/>
      <point x="123" y="332" type="curve" smooth="yes"/>
      <point x="1035" y="332" type="line" smooth="yes"/>
      <point x="1080" y="332"/>
      <point x="1098" y="352"/>
      <point x="1098" y="404" type="curve" smooth="yes"/>
      <point x="1098" y="456"/>
      <point x="1080" y="476"/>
      <point x="1035" y="476" type="curve" smooth="yes"/>
    </contour>
    <contour>
      <point x="532" y="1209"/>
      <point x="508" y="1199"/>
      <point x="502" y="1176" type="curve" smooth="yes"/>
      <point x="208" y="45" type="line" smooth="yes"/>
      <point x="197" y="3"/>
      <point x="239" y="-22"/>
      <point x="278" y="-22" type="curve" smooth="yes"/>
      <point x="302" y="-22"/>
      <point x="326" y="-12"/>
      <point x="332" y="11" type="curve" smooth="yes"/>
      <point x="626" y="1142" type="line" smooth="yes"/>
      <point x="637" y="1184"/>
      <point x="595" y="1209"/>
      <point x="556" y="1209" type="curve" smooth="yes"/>
    </contour>
    <contour>
      <point x="193" y="865" type="line" smooth="yes"/>
      <point x="148" y="865"/>
      <point x="130" y="845"/>
      <point x="130" y="793" type="curve" smooth="yes"/>
      <point x="130" y="741"/>
      <point x="148" y="721"/>
      <point x="193" y="721" type="curve" smooth="yes"/>
      <point x="1105" y="721" type="line" smooth="yes"/>
      <point x="1150" y="721"/>
      <point x="1168" y="741"/>
      <point x="1168" y="793" type="curve" smooth="yes"/>
      <point x="1168" y="845"/>
      <point x="1150" y="865"/>
      <point x="1105" y="865" type="curve" smooth="yes"/>
    </contour>
  </outline>
</glyph>
<glyph name="dollar" format="1">
  <advance width="1228"/>
  <unicode hex="0024"/>
  <outline>
    <contour>
      <point x="559" y="1312"/>
      <point x="538" y="1293"/>
      <point x="538" y="1247" type="curve" smooth="yes"/>
      <point x="538" y="1086" type="line"/>
      <point x="336" y="1086"/>
      <point x="184" y="989"/>
      <point x="184" y="810" type="curve" smooth="yes"/>
      <point x="184" y="693"/>
      <point x="248" y="631"/>
      <point x="338" y="595" type="curve" smooth="yes"/>
      <point x="397" y="571"/>
      <point x="467" y="559"/>
      <point x="538" y="550" type="curve"/>
      <point x="538" y="271" type="line"/>
      <point x="420" y="291"/>
      <point x="346" y="347"/>
      <point x="308" y="447" type="curve" smooth="yes"/>
      <point x="297" y="475"/>
      <point x="283" y="488"/>
      <point x="254" y="488" type="curve" smooth="yes"/>
      <point x="198" y="488"/>
      <point x="179" y="469"/>
      <point x="179" y="423" type="curve" smooth="yes"/>
      <point x="179" y="183" type="line" smooth="yes"/>
      <point x="179" y="137"/>
      <point x="198" y="118"/>
      <point x="254" y="118" type="curve" smooth="yes"/>
      <point x="310" y="118"/>
      <point x="329" y="137"/>
      <point x="329" y="183" type="curve" smooth="yes"/>
      <point x="329" y="239" type="line"/>
      <point x="385" y="183"/>
      <point x="453" y="146"/>
      <point x="538" y="129" type="curve"/>
      <point x="538" y="-60" type="line" smooth="yes"/>
      <point x="538" y="-106"/>
      <point x="559" y="-125"/>
      <point x="608" y="-125" type="curve" smooth="yes"/>
      <point x="657" y="-125"/>
      <point x="678" y="-106"/>
      <point x="678" y="-60" type="curve" smooth="yes"/>
      <point x="678" y="118" type="line"/>
      <point x="917" y="123"/>
      <point x="1050" y="242"/>
      <point x="1050" y="417" type="curve" smooth="yes"/>
      <point x="1050" y="544"/>
      <point x="979" y="610"/>
      <point x="881" y="646" type="curve" smooth="yes"/>
      <point x="820" y="668"/>
      <point x="748" y="680"/>
      <point x="678" y="688" type="curve"/>
      <point x="678" y="935" type="line"/>
      <point x="769" y="918"/>
      <point x="839" y="873"/>
      <point x="881" y="792" type="curve" smooth="yes"/>
      <point x="890" y="775"/>
      <point x="905" y="766"/>
      <point x="929" y="766" type="curve" smooth="yes"/>
      <point x="985" y="766"/>
      <point x="1004" y="785"/>
      <point x="1004" y="831" type="curve" smooth="yes"/>
      <point x="1004" y="1021" type="line" smooth="yes"/>
      <point x="1004" y="1067"/>
      <point x="985" y="1086"/>
      <point x="929" y="1086" type="curve" smooth="yes"/>
      <point x="873" y="1086"/>
      <point x="854" y="1067"/>
      <point x="854" y="1021" type="curve" smooth="yes"/>
      <point x="854" y="976" type="line"/>
      <point x="807" y="1018"/>
      <point x="748" y="1055"/>
      <point x="678" y="1073" type="curve"/>
      <point x="678" y="1247" type="line" smooth="yes"/>
      <point x="678" y="1293"/>
      <point x="657" y="1312"/>
      <point x="608" y="1312" type="curve" smooth="yes"/>
    </contour>
    <contour>
      <point x="727" y="528"/>
      <point x="771" y="521"/>
      <point x="807" y="509" type="curve" smooth="yes"/>
      <point x="859" y="492"/>
      <point x="892" y="465"/>
      <point x="892" y="417" type="curve" smooth="yes"/>
      <point x="892" y="331"/>
      <point x="820" y="270"/>
      <point x="678" y="263" type="curve"/>
      <point x="678" y="534" type="line"/>
    </contour>
    <contour>
      <point x="538" y="702" type="line"/>
      <point x="494" y="708"/>
      <point x="455" y="714"/>
      <point x="423" y="725" type="curve" smooth="yes"/>
      <point x="373" y="741"/>
      <point x="342" y="766"/>
      <point x="342" y="810" type="curve" smooth="yes"/>
      <point x="342" y="891"/>
      <point x="415" y="938"/>
      <point x="538" y="941" type="curve"/>
    </contour>
  </outline>
</glyph>
<glyph name="ampersand" format="1">
  <advance width="1228"/>
  <unicode hex="0026"/>
  <outline>
    <contour>
      <point x="373" y="1209"/>
      <point x="243" y="1068"/>
      <point x="243" y="890" type="curve" smooth="yes"/>
      <point x="243" y="785"/>
      <point x="284" y="702"/>
      <point x="342" y="634" type="curve"/>
      <point x="225" y="553"/>
      <point x="147" y="451"/>
      <point x="147" y="310" type="curve" smooth="yes"/>
      <point x="147" y="131"/>
      <point x="270" y="-22"/>
      <point x="486" y="-22" type="curve" smooth="yes"/>
      <point x="607" y="-22"/>
      <point x="709" y="35"/>
      <point x="791" y="130" type="curve"/>
      <point x="878" y="33" type="line" smooth="yes"/>
      <point x="899" y="10"/>
      <point x="927" y="0"/>
      <point x="956" y="0" type="curve" smooth="yes"/>
      <point x="1070" y="0" type="line" smooth="yes"/>
      <point x="1115" y="0"/>
      <point x="1133" y="18"/>
      <point x="1133" y="68" type="curve" smooth="yes"/>
      <point x="1133" y="118"/>
      <point x="1115" y="136"/>
      <point x="1070" y="136" type="curve" smooth="yes"/>
      <point x="986" y="136" type="line"/>
      <point x="877" y="258" type="line"/>
      <point x="911" y="322"/>
      <point x="940" y="396"/>
      <point x="963" y="475" type="curve"/>
      <point x="1056" y="475" type="line" smooth="yes"/>
      <point x="1101" y="475"/>
      <point x="1119" y="493"/>
      <point x="1119" y="543" type="curve" smooth="yes"/>
      <point x="1119" y="593"/>
      <point x="1101" y="611"/>
      <point x="1056" y="611" type="curve" smooth="yes"/>
      <point x="899" y="611" type="line" smooth="yes"/>
      <point x="869" y="611"/>
      <point x="854" y="593"/>
      <point x="847" y="569" type="curve" smooth="yes"/>
      <point x="826" y="497"/>
      <point x="802" y="431"/>
      <point x="775" y="372" type="curve"/>
      <point x="482" y="702" type="line" smooth="yes"/>
      <point x="429" y="762"/>
      <point x="399" y="818"/>
      <point x="399" y="890" type="curve" smooth="yes"/>
      <point x="399" y="983"/>
      <point x="463" y="1061"/>
      <point x="577" y="1061" type="curve" smooth="yes"/>
      <point x="653" y="1061"/>
      <point x="715" y="1043"/>
      <point x="762" y="1014" type="curve"/>
      <point x="762" y="924" type="line" smooth="yes"/>
      <point x="762" y="878"/>
      <point x="781" y="859"/>
      <point x="837" y="859" type="curve" smooth="yes"/>
      <point x="893" y="859"/>
      <point x="912" y="878"/>
      <point x="912" y="924" type="curve" smooth="yes"/>
      <point x="912" y="1051" type="line" smooth="yes"/>
      <point x="912" y="1077"/>
      <point x="906" y="1094"/>
      <point x="891" y="1105" type="curve" smooth="yes"/>
      <point x="804" y="1165"/>
      <point x="697" y="1209"/>
      <point x="578" y="1209" type="curve" smooth="yes"/>
    </contour>
    <contour>
      <point x="695" y="238" type="line"/>
      <point x="638" y="168"/>
      <point x="570" y="126"/>
      <point x="486" y="126" type="curve" smooth="yes"/>
      <point x="378" y="126"/>
      <point x="305" y="205"/>
      <point x="305" y="310" type="curve" smooth="yes"/>
      <point x="305" y="399"/>
      <point x="343" y="467"/>
      <point x="434" y="532" type="curve"/>
    </contour>
  </outline>
</glyph>
<glyph name="slash" format="1">
  <advance width="1228"/>
  <unicode hex="002F"/>
  <outline>
    <contour>
      <point x="920" y="1335"/>
      <point x="892" y="1326"/>
      <point x="883" y="1305" type="curve" smooth="yes"/>
      <point x="201" y="-233" type="line" smooth="yes"/>
      <point x="184" y="-272"/>
      <point x="233" y="-297"/>
      <point x="280" y="-297" type="curve" smooth="yes"/>
      <point x="308" y="-297"/>
      <point x="336" y="-288"/>
      <point x="345" y="-267" type="curve" smooth="yes"/>
      <point x="1027" y="1271" type="line" smooth="yes"/>
      <point x="1044" y="1310"/>
      <point x="995" y="1335"/>
      <point x="948" y="1335" type="curve" smooth="yes"/>
    </contour>
  </outline>
</glyph>
<glyph name="less" format="1">
  <advance width="1228"/>
  <unicode hex="003C"/>
  <outline>
    <contour>
      <point x="172" y="652" type="line" smooth="yes"/>
      <point x="140" y="636"/>
      <point x="125" y="618"/>
      <point x="125" y="583" type="curve" smooth="yes"/>
      <point x="125" y="548"/>
      <point x="140" y="530"/>
      <point x="172" y="514" type="curve" smooth="yes"/>
      <point x="949" y="133" type="line" smooth="yes"/>
      <point x="990" y="113"/>
      <point x="1019" y="122"/>
      <point x="1041" y="166" type="curve" smooth="yes"/>
      <point x="1064" y="212"/>
      <point x="1054" y="241"/>
      <point x="1012" y="261" type="curve" smooth="yes"/>
      <point x="340" y="583" type="line"/>
      <point x="1012" y="905" type="line" smooth="yes"/>
      <point x="1054" y="925"/>
      <point x="1064" y="954"/>
      <point x="1041" y="1000" type="curve" smooth="yes"/>
      <point x="1019" y="1044"/>
      <point x="990" y="1053"/>
      <point x="949" y="1033" type="curve" smooth="yes"/>
    </contour>
  </outline>
</glyph>
<glyph name="equal" format="1">
  <advance width="1228"/>
  <unicode hex="003D"/>
  <outline>
    <contour>
      <point x="233" y="850" type="line" smooth="yes"/>
      <point x="188" y="850"/>
      <point x="170" y="832"/>
      <point x="170" y="782" type="curve" smooth="yes"/>
      <point x="170" y="732"/>
      <point x="188" y="714"/>
      <point x="233" y="714" type="curve" smooth="yes"/>
      <point x="995" y="714" type="line" smooth="yes"/>
      <point x="1040" y="714"/>
      <point x="1058" y="732"/>
      <point x="1058" y="782" type="curve" smooth="yes"/>
      <point x="1058" y="832"/>
      <point x="1040" y="850"/>
      <point x="995" y="850" type="curve" smooth="yes"/>
    </contour>
    <contour>
      <point x="233" y="450" type="line" smooth="yes"/>
      <point x="188" y="450"/>
      <point x="170" y="432"/>
      <point x="170" y="382" type="curve" smooth="yes"/>
      <point x="170" y="332"/>
      <point x="188" y="314"/>
      <point x="233" y="314" type="curve" smooth="yes"/>
      <point x="995" y="314" type="line" smooth="yes"/>
      <point x="1040" y="314"/>
      <point x="1058" y="332"/>
      <point x="1058" y="382" type="curve" smooth="yes"/>
      <point x="1058" y="432"/>
      <point x="1040" y="450"/>
      <point x="995" y="450" type="curve" smooth="yes"/>
    </contour>
  </outline>
</glyph>
<glyph name="question" format="1">
  <advance width="1228"/>
  <unicode hex="003F"/>
  <outline>
    <contour>
      <point x="496" y="1209"/>
      <point x="380" y="1179"/>
      <point x="279" y="1118" type="curve" smooth="yes"/>
      <point x="261" y="1107"/>
      <point x="254" y="1090"/>
      <point x="254" y="1062" type="curve" smooth="yes"/>
      <point x="254" y="935" type="line" smooth="yes"/>
      <point x="254" y="889"/>
      <point x="273" y="870"/>
      <point x="329" y="870" type="curve" smooth="yes"/>
      <point x="385" y="870"/>
      <point x="404" y="889"/>
      <point x="404" y="935" type="curve" smooth="yes"/>
      <point x="404" y="1024" type="line"/>
      <point x="466" y="1050"/>
      <point x="538" y="1061"/>
      <point x="619" y="1061" type="curve" smooth="yes"/>
      <point x="744" y="1061"/>
      <point x="812" y="993"/>
      <point x="812" y="896" type="curve" smooth="yes"/>
      <point x="812" y="796"/>
      <point x="746" y="746"/>
      <point x="594" y="684" type="curve" smooth="yes"/>
      <point x="525" y="656" type="line" smooth="yes"/>
      <point x="502" y="647"/>
      <point x="494" y="631"/>
      <point x="495" y="605" type="curve" smooth="yes"/>
      <point x="505" y="410" type="line" smooth="yes"/>
      <point x="507" y="379"/>
      <point x="532" y="359"/>
      <point x="574" y="359" type="curve" smooth="yes"/>
      <point x="616" y="359"/>
      <point x="641" y="379"/>
      <point x="643" y="410" type="curve" smooth="yes"/>
      <point x="653" y="551" type="line"/>
      <point x="859" y="635"/>
      <point x="970" y="717"/>
      <point x="970" y="896" type="curve" smooth="yes"/>
      <point x="970" y="1081"/>
      <point x="839" y="1209"/>
      <point x="618" y="1209" type="curve" smooth="yes"/>
    </contour>
    <contour>
      <point x="498" y="254"/>
      <point x="436" y="192"/>
      <point x="436" y="116" type="curve" smooth="yes"/>
      <point x="436" y="40"/>
      <point x="498" y="-22"/>
      <point x="574" y="-22" type="curve" smooth="yes"/>
      <point x="650" y="-22"/>
      <point x="712" y="40"/>
      <point x="712" y="116" type="curve" smooth="yes"/>
      <point x="712" y="192"/>
      <point x="650" y="254"/>
      <point x="574" y="254" type="curve" smooth="yes"/>
    </contour>
  </outline>
</glyph>
<glyph name="R" format="1">
  <advance width="1228"/>
  <unicode hex="0052"/>
  <outline>
    <contour>
      <point x="143" y="1187" type="line" smooth="yes"/>
      <point x="98" y="1187"/>
      <point x="80" y="1169"/>
      <point x="80" y="1119" type="curve" smooth="yes"/>
      <point x="80" y="1069"/>
      <point x="98" y="1051"/>
      <point x="143" y="1051" type="curve" smooth="yes"/>
      <point x="265" y="1051" type="line"/>
      <point x="265" y="136" type="line"/>
      <point x="143" y="136" type="line" smooth="yes"/>
      <point x="98" y="136"/>
      <point x="80" y="118"/>
      <point x="80" y="68" type="curve" smooth="yes"/>
      <point x="80" y="18"/>
      <point x="98" y="0"/>
      <point x="143" y="0" type="curve" smooth="yes"/>
      <point x="545" y="0" type="line" smooth="yes"/>
      <point x="590" y="0"/>
      <point x="608" y="18"/>
      <point x="608" y="68" type="curve" smooth="yes"/>
      <point x="608" y="118"/>
      <point x="590" y="136"/>
      <point x="545" y="136" type="curve" smooth="yes"/>
      <point x="415" y="136" type="line"/>
      <point x="415" y="515" type="line"/>
      <point x="551" y="515" type="line" smooth="yes"/>
      <point x="632" y="515"/>
      <point x="685" y="485"/>
      <point x="724" y="430" type="curve" smooth="yes"/>
      <point x="785" y="345"/>
      <point x="812" y="255"/>
      <point x="871" y="139" type="curve" smooth="yes"/>
      <point x="923" y="37"/>
      <point x="974" y="0"/>
      <point x="1053" y="0" type="curve" smooth="yes"/>
      <point x="1125" y="0" type="line" smooth="yes"/>
      <point x="1170" y="0"/>
      <point x="1188" y="18"/>
      <point x="1188" y="68" type="curve" smooth="yes"/>
      <point x="1188" y="118"/>
      <point x="1170" y="136"/>
      <point x="1125" y="136" type="curve" smooth="yes"/>
      <point x="1097" y="136" type="line" smooth="yes"/>
      <point x="1059" y="136"/>
      <point x="1031" y="164"/>
      <point x="1007" y="208" type="curve" smooth="yes"/>
      <point x="961" y="292"/>
      <point x="933" y="386"/>
      <point x="862" y="478" type="curve" smooth="yes"/>
      <point x="837" y="511"/>
      <point x="805" y="535"/>
      <point x="769" y="549" type="curve"/>
      <point x="938" y="587"/>
      <point x="1046" y="696"/>
      <point x="1046" y="850" type="curve" smooth="yes"/>
      <point x="1046" y="1051"/>
      <point x="904" y="1187"/>
      <point x="649" y="1187" type="curve" smooth="yes"/>
    </contour>
    <contour>
      <point x="793" y="1051"/>
      <point x="888" y="979"/>
      <point x="888" y="850" type="curve" smooth="yes"/>
      <point x="888" y="708"/>
      <point x="784" y="651"/>
      <point x="618" y="651" type="curve" smooth="yes"/>
      <point x="415" y="651" type="line"/>
      <point x="415" y="1051" type="line"/>
      <point x="628" y="1051" type="line" smooth="yes"/>
    </contour>
  </outline>
</glyph>
<glyph name="bracketright" format="1">
  <advance width="1228"/>
  <unicode hex="005D"/>
  <outline>
    <contour>
      <point x="421" y="1372" type="line" smooth="yes"/>
      <point x="376" y="1372"/>
      <point x="358" y="1354"/>
      <point x="358" y="1304" type="curve" smooth="yes"/>
      <point x="358" y="1254"/>
      <point x="376" y="1236"/>
      <point x="421" y="1236" type="curve" smooth="yes"/>
      <point x="748" y="1236" type="line"/>
      <point x="748" y="-197" type="line"/>
      <point x="421" y="-197" type="line" smooth="yes"/>
      <point x="376" y="-197"/>
      <point x="358" y="-215"/>
      <point x="358" y="-265" type="curve" smooth="yes"/>
      <point x="358" y="-315"/>
      <point x="376" y="-333"/>
      <point x="421" y="-333" type="curve" smooth="yes"/>
      <point x="835" y="-333" type="line" smooth="yes"/>
      <point x="880" y="-333"/>
      <point x="898" y="-315"/>
      <point x="898" y="-265" type="curve" smooth="yes"/>
      <point x="898" y="1304" type="line" smooth="yes"/>
      <point x="898" y="1354"/>
      <point x="880" y="1372"/>
      <point x="835" y="1372" type="curve" smooth="yes"/>
    </contour>
  </outline>
</glyph>
<glyph name="asciicircum" format="1">
  <advance width="1228"/>
  <unicode hex="005E"/>
  <outline>
    <contour>
      <point x="575" y="1209"/>
      <point x="559" y="1196"/>
      <point x="546" y="1172" type="curve" smooth="yes"/>
      <point x="238" y="581" type="line" smooth="yes"/>
      <point x="220" y="547"/>
      <point x="247" y="521"/>
      <point x="282" y="509" type="curve" smooth="yes"/>
      <point x="318" y="496"/>
      <point x="364" y="500"/>
      <point x="377" y="527" type="curve" smooth="yes"/>
      <point x="614" y="1007" type="line"/>
      <point x="851" y="527" type="line" smooth="yes"/>
      <point x="864" y="500"/>
      <point x="910" y="496"/>
      <point x="946" y="509" type="curve" smooth="yes"/>
      <point x="981" y="521"/>
      <point x="1008" y="547"/>
      <point x="990" y="581" type="curve" smooth="yes"/>
      <point x="682" y="1172" type="line" smooth="yes"/>
      <point x="669" y="1196"/>
      <point x="653" y="1209"/>
      <point x="614" y="1209" type="curve" smooth="yes"/>
    </contour>
  </outline>
</glyph>
<glyph name="c" format="1">
  <advance width="1228"/>
  <unicode hex="0063"/>
  <outline>
    <contour>
      <point x="918" y="946"/>
      <point x="899" y="927"/>
      <point x="899" y="881" type="curve" smooth="yes"/>
      <point x="899" y="821" type="line"/>
      <point x="831" y="900"/>
      <point x="729" y="946"/>
      <point x="609" y="946" type="curve" smooth="yes"/>
      <point x="322" y="946"/>
      <point x="127" y="739"/>
      <point x="127" y="462" type="curve" smooth="yes"/>
      <point x="127" y="185"/>
      <point x="317" y="-22"/>
      <point x="609" y="-22" type="curve" smooth="yes"/>
      <point x="761" y="-22"/>
      <point x="914" y="26"/>
      <point x="1021" y="106" type="curve" smooth="yes"/>
      <point x="1060" y="134"/>
      <point x="1060" y="176"/>
      <point x="1038" y="212" type="curve" smooth="yes"/>
      <point x="1010" y="258"/>
      <point x="979" y="263"/>
      <point x="945" y="237" type="curve" smooth="yes"/>
      <point x="850" y="164"/>
      <point x="731" y="126"/>
      <point x="609" y="126" type="curve" smooth="yes"/>
      <point x="414" y="126"/>
      <point x="285" y="267"/>
      <point x="285" y="462" type="curve" smooth="yes"/>
      <point x="285" y="657"/>
      <point x="424" y="798"/>
      <point x="619" y="798" type="curve" smooth="yes"/>
      <point x="802" y="798"/>
      <point x="899" y="712"/>
      <point x="899" y="591" type="curve" smooth="yes"/>
      <point x="899" y="545"/>
      <point x="918" y="526"/>
      <point x="974" y="526" type="curve" smooth="yes"/>
      <point x="1030" y="526"/>
      <point x="1049" y="545"/>
      <point x="1049" y="591" type="curve" smooth="yes"/>
      <point x="1049" y="881" type="line" smooth="yes"/>
      <point x="1049" y="927"/>
      <point x="1030" y="946"/>
      <point x="974" y="946" type="curve" smooth="yes"/>
    </contour>
  </outline>
</glyph>
<glyph name="e" format="1">
  <advance width="1228"/>
  <unicode hex="0065"/>
  <outline>
    <contour>
      <point x="344" y="946"/>
      <point x="146" y="753"/>
      <point x="146" y="462" type="curve" smooth="yes"/>
      <point x="146" y="161"/>
      <point x="311" y="-22"/>
      <point x="603" y="-22" type="curve" smooth="yes"/>
      <point x="758" y="-22"/>
      <point x="912" y="15"/>
      <point x="1016" y="65" type="curve" smooth="yes"/>
      <point x="1060" y="87"/>
      <point x="1069" y="122"/>
      <point x="1051" y="165" type="curve" smooth="yes"/>
      <point x="1034" y="207"/>
      <point x="1005" y="233"/>
      <point x="963" y="209" type="curve" smooth="yes"/>
      <point x="872" y="156"/>
      <point x="737" y="123"/>
      <point x="603" y="123" type="curve" smooth="yes"/>
      <point x="418" y="123"/>
      <point x="314" y="225"/>
      <point x="304" y="425" type="curve"/>
      <point x="1028" y="425" type="line" smooth="yes"/>
      <point x="1073" y="425"/>
      <point x="1091" y="442"/>
      <point x="1091" y="487" type="curve"/>
      <point x="1076" y="753"/>
      <point x="920" y="946"/>
      <point x="623" y="946" type="curve" smooth="yes"/>
    </contour>
    <contour>
      <point x="799" y="801"/>
      <point x="897" y="715"/>
      <point x="925" y="565" type="curve"/>
      <point x="314" y="565" type="line"/>
      <point x="347" y="712"/>
      <point x="457" y="801"/>
      <point x="623" y="801" type="curve" smooth="yes"/>
    </contour>
  </outline>
</glyph>
<glyph name="k" format="1">
  <advance width="1228"/>
  <unicode hex="006B"/>
  <outline>
    <contour>
      <point x="130" y="1312" type="line" smooth="yes"/>
      <point x="85" y="1312"/>
      <point x="67" y="1294"/>
      <point x="67" y="1244" type="curve" smooth="yes"/>
      <point x="67" y="1194"/>
      <point x="85" y="1176"/>
      <point x="130" y="1176" type="curve" smooth="yes"/>
      <point x="261" y="1176" type="line"/>
      <point x="261" y="136" type="line"/>
      <point x="150" y="136" type="line" smooth="yes"/>
      <point x="105" y="136"/>
      <point x="87" y="118"/>
      <point x="87" y="68" type="curve" smooth="yes"/>
      <point x="87" y="18"/>
      <point x="105" y="0"/>
      <point x="150" y="0" type="curve" smooth="yes"/>
      <point x="484" y="0" type="line" smooth="yes"/>
      <point x="529" y="0"/>
      <point x="547" y="18"/>
      <point x="547" y="68" type="curve" smooth="yes"/>
      <point x="547" y="118"/>
      <point x="529" y="136"/>
      <point x="484" y="136" type="curve" smooth="yes"/>
      <point x="411" y="136" type="line"/>
      <point x="411" y="1244" type="line" smooth="yes"/>
      <point x="411" y="1294"/>
      <point x="393" y="1312"/>
      <point x="348" y="1312" type="curve" smooth="yes"/>
    </contour>
    <contour>
      <point x="804" y="799" type="line"/>
      <point x="399" y="441" type="line"/>
      <point x="399" y="263" type="line"/>
      <point x="605" y="445" type="line"/>
      <point x="690" y="518" type="line"/>
      <point x="1008" y="799" type="line"/>
    </contour>
    <contour>
      <point x="721" y="924" type="line" smooth="yes"/>
      <point x="676" y="924"/>
      <point x="658" y="906"/>
      <point x="658" y="856" type="curve" smooth="yes"/>
      <point x="658" y="806"/>
      <point x="676" y="788"/>
      <point x="721" y="788" type="curve" smooth="yes"/>
      <point x="1055" y="788" type="line" smooth="yes"/>
      <point x="1100" y="788"/>
      <point x="1118" y="806"/>
      <point x="1118" y="856" type="curve" smooth="yes"/>
      <point x="1118" y="906"/>
      <point x="1100" y="924"/>
      <point x="1055" y="924" type="curve" smooth="yes"/>
    </contour>
    <contour>
      <point x="583" y="446" type="line"/>
      <point x="932" y="31" type="line" smooth="yes"/>
      <point x="951" y="9"/>
      <point x="975" y="0"/>
      <point x="1003" y="0" type="curve" smooth="yes"/>
      <point x="1048" y="0" type="line"/>
      <point x="1048" y="124" type="line"/>
      <point x="692" y="541" type="line"/>
    </contour>
    <contour>
      <point x="772" y="136" type="line" smooth="yes"/>
      <point x="727" y="136"/>
      <point x="709" y="118"/>
      <point x="709" y="68" type="curve" smooth="yes"/>
      <point x="709" y="18"/>
      <point x="727" y="0"/>
      <point x="772" y="0" type="curve" smooth="yes"/>
      <point x="1096" y="0" type="line" smooth="yes"/>
      <point x="1141" y="0"/>
      <point x="1159" y="18"/>
      <point x="1159" y="68" type="curve" smooth="yes"/>
      <point x="1159" y="118"/>
      <point x="1141" y="136"/>
      <point x="1096" y="136" type="curve" smooth="yes"/>
    </contour>
  </outline>
</glyph>
<glyph name="o" format="1">
  <advance width="1228"/>
  <unicode hex="006F"/>
  <outline>
    <contour>
      <point x="332" y="946"/>
      <point x="120" y="744"/>
      <point x="120" y="462" type="curve" smooth="yes"/>
      <point x="120" y="180"/>
      <point x="332" y="-22"/>
      <point x="614" y="-22" type="curve" smooth="yes"/>
      <point x="896" y="-22"/>
      <point x="1108" y="180"/>
      <point x="1108" y="462" type="curve" smooth="yes"/>
      <point x="1108" y="744"/>
      <point x="896" y="946"/>
      <point x="614" y="946" type="curve" smooth="yes"/>
    </contour>
    <contour>
      <point x="814" y="798"/>
      <point x="950" y="657"/>
      <point x="950" y="462" type="curve" smooth="yes"/>
      <point x="950" y="267"/>
      <point x="814" y="126"/>
      <point x="614" y="126" type="curve" smooth="yes"/>
      <point x="414" y="126"/>
      <point x="278" y="267"/>
      <point x="278" y="462" type="curve" smooth="yes"/>
      <point x="278" y="657"/>
      <point x="414" y="798"/>
      <point x="614" y="798" type="curve" smooth="yes"/>
    </contour>
  </outline>
</glyph>
<glyph name="u" format="1">
  <advance width="1228"/>
  <unicode hex="0075"/>
  <outline>
    <contour>
      <point x="707" y="924" type="line" smooth="yes"/>
      <point x="662" y="924"/>
      <point x="644" y="906"/>
      <point x="644" y="856" type="curve" smooth="yes"/>
      <point x="644" y="806"/>
      <point x="662" y="788"/>
      <point x="707" y="788" type="curve" smooth="yes"/>
      <point x="849" y="788" type="line"/>
      <point x="849" y="502" type="line" smooth="yes"/>
      <point x="849" y="284"/>
      <point x="700" y="126"/>
      <point x="529" y="126" type="curve" smooth="yes"/>
      <point x="420" y="126"/>
      <point x="367" y="204"/>
      <point x="367" y="319" type="curve" smooth="yes"/>
      <point x="367" y="856" type="line" smooth="yes"/>
      <point x="367" y="906"/>
      <point x="349" y="924"/>
      <point x="304" y="924" type="curve" smooth="yes"/>
      <point x="135" y="924" type="line" smooth="yes"/>
      <point x="90" y="924"/>
      <point x="72" y="906"/>
      <point x="72" y="856" type="curve" smooth="yes"/>
      <point x="72" y="806"/>
      <point x="90" y="788"/>
      <point x="135" y="788" type="curve" smooth="yes"/>
      <point x="217" y="788" type="line"/>
      <point x="217" y="304" type="line" smooth="yes"/>
      <point x="217" y="104"/>
      <point x="330" y="-22"/>
      <point x="514" y="-22" type="curve" smooth="yes"/>
      <point x="650" y="-22"/>
      <point x="771" y="52"/>
      <point x="859" y="188" type="curve"/>
      <point x="859" y="67" type="line" smooth="yes"/>
      <point x="859" y="17"/>
      <point x="877" y="0"/>
      <point x="922" y="0" type="curve" smooth="yes"/>
      <point x="1081" y="0" type="line" smooth="yes"/>
      <point x="1126" y="0"/>
      <point x="1144" y="18"/>
      <point x="1144" y="68" type="curve" smooth="yes"/>
      <point x="1144" y="118"/>
      <point x="1126" y="136"/>
      <point x="1081" y="136" type="curve" smooth="yes"/>
      <point x="999" y="136" type="line"/>
      <point x="999" y="856" type="line" smooth="yes"/>
      <point x="999" y="906"/>
      <point x="981" y="924"/>
      <point x="936" y="924" type="curve" smooth="yes"/>
    </contour>
  </outline>
</glyph>
<glyph name="asciitilde" format="1">
  <advance width="1228"/>
  <unicode hex="007E"/>
  <outline>
    <contour>
      <point x="311" y="735"/>
      <point x="217" y="666"/>
      <point x="157" y="568" type="curve" smooth="yes"/>
      <point x="142" y="543"/>
      <point x="151" y="514"/>
      <point x="182" y="491" type="curve" smooth="yes"/>
      <point x="214" y="467"/>
      <point x="243" y="469"/>
      <point x="263" y="493" type="curve" smooth="yes"/>
      <point x="309" y="548"/>
      <point x="359" y="577"/>
      <point x="418" y="577" type="curve" smooth="yes"/>
      <point x="541" y="577"/>
      <point x="647" y="429"/>
      <point x="810" y="429" type="curve" smooth="yes"/>
      <point x="917" y="429"/>
      <point x="1011" y="498"/>
      <point x="1071" y="596" type="curve" smooth="yes"/>
      <point x="1086" y="621"/>
      <point x="1077" y="650"/>
      <point x="1046" y="673" type="curve" smooth="yes"/>
      <point x="1014" y="697"/>
      <point x="985" y="695"/>
      <point x="965" y="671" type="curve" smooth="yes"/>
      <point x="919" y="616"/>
      <point x="869" y="587"/>
      <point x="810" y="587" type="curve" smooth="yes"/>
      <point x="686" y="587"/>
      <point x="581" y="735"/>
      <point x="418" y="735" type="curve" smooth="yes"/>
    </contour>
  </outline>
</glyph>
<glyph name="cent" format="1">
  <advance width="1228"/>
  <unicode hex="00A2"/>
  <outline>
    <contour>
      <point x="565" y="1312"/>
      <point x="544" y="1293"/>
      <point x="544" y="1247" type="curve" smooth="yes"/>
      <point x="544" y="-60" type="line" smooth="yes"/>
      <point x="544" y="-106"/>
      <point x="565" y="-125"/>
      <point x="614" y="-125" type="curve" smooth="yes"/>
      <point x="663" y="-125"/>
      <point x="684" y="-106"/>
      <point x="684" y="-60" type="curve" smooth="yes"/>
      <point x="684" y="1247" type="line" smooth="yes"/>
      <point x="684" y="1293"/>
      <point x="663" y="1312"/>
      <point x="614" y="1312" type="curve" smooth="yes"/>
    </contour>
    <component base="c" yOffset="140"/>
  </outline>
</glyph>
<glyph name="brokenbar" format="1">
  <advance width="1228"/>
  <unicode hex="00A6"/>
  <outline>
    <contour>
      <point x="558" y="1394"/>
      <point x="539" y="1375"/>
      <point x="539" y="1329" type="curve" smooth="yes"/>
      <point x="539" y="730" type="line" smooth="yes"/>
      <point x="539" y="684"/>
      <point x="558" y="665"/>
      <point x="614" y="665" type="curve" smooth="yes"/>
      <point x="670" y="665"/>
      <point x="689" y="684"/>
      <point x="689" y="730" type="curve" smooth="yes"/>
      <point x="689" y="1329" type="line" smooth="yes"/>
      <point x="689" y="1375"/>
      <point x="670" y="1394"/>
      <point x="614" y="1394" type="curve" smooth="yes"/>
    </contour>
    <contour>
      <point x="558" y="374"/>
      <point x="539" y="355"/>
      <point x="539" y="309" type="curve" smooth="yes"/>
      <point x="539" y="-290" type="line" smooth="yes"/>
      <point x="539" y="-336"/>
      <point x="558" y="-355"/>
      <point x="614" y="-355" type="curve" smooth="yes"/>
      <point x="670" y="-355"/>
      <point x="689" y="-336"/>
      <point x="689" y="-290" type="curve" smooth="yes"/>
      <point x="689" y="309" type="line" smooth="yes"/>
      <point x="689" y="355"/>
      <point x="670" y="374"/>
      <point x="614" y="374" type="curve" smooth="yes"/>
    </contour>
  </outline>
</glyph>
<glyph name="section" format="1">
  <advance width="1228"/>
  <unicode hex="00A7"/>
  <outline>
    <contour>
      <point x="579" y="1187" type="line" smooth="yes"/>
      <point x="395" y="1187"/>
      <point x="300" y="1087"/>
      <point x="300" y="947" type="curve" smooth="yes"/>
      <point x="300" y="909"/>
      <point x="306" y="875"/>
      <point x="317" y="844" type="curve"/>
      <point x="228" y="779"/>
      <point x="179" y="718"/>
      <point x="179" y="629" type="curve" smooth="yes"/>
      <point x="179" y="513"/>
      <point x="242" y="437"/>
      <point x="346" y="373" type="curve" smooth="yes"/>
      <point x="640" y="191" type="line" smooth="yes"/>
      <point x="723" y="140"/>
      <point x="770" y="85"/>
      <point x="770" y="14" type="curve" smooth="yes"/>
      <point x="770" y="-56"/>
      <point x="724" y="-94"/>
      <point x="629" y="-94" type="curve" smooth="yes"/>
      <point x="390" y="-94" type="line"/>
      <point x="390" y="55" type="line" smooth="yes"/>
      <point x="390" y="101"/>
      <point x="371" y="120"/>
      <point x="315" y="120" type="curve" smooth="yes"/>
      <point x="259" y="120"/>
      <point x="240" y="101"/>
      <point x="240" y="55" type="curve" smooth="yes"/>
      <point x="240" y="-162" type="line" smooth="yes"/>
      <point x="240" y="-212"/>
      <point x="258" y="-230"/>
      <point x="303" y="-230" type="curve" smooth="yes"/>
      <point x="649" y="-230" type="line" smooth="yes"/>
      <point x="833" y="-230"/>
      <point x="928" y="-130"/>
      <point x="928" y="10" type="curve" smooth="yes"/>
      <point x="928" y="47"/>
      <point x="922" y="81"/>
      <point x="911" y="113" type="curve"/>
      <point x="999" y="177"/>
      <point x="1049" y="238"/>
      <point x="1049" y="328" type="curve" smooth="yes"/>
      <point x="1049" y="444"/>
      <point x="986" y="520"/>
      <point x="882" y="584" type="curve" smooth="yes"/>
      <point x="588" y="766" type="line" smooth="yes"/>
      <point x="505" y="817"/>
      <point x="458" y="872"/>
      <point x="458" y="943" type="curve" smooth="yes"/>
      <point x="458" y="1013"/>
      <point x="504" y="1051"/>
      <point x="599" y="1051" type="curve" smooth="yes"/>
      <point x="838" y="1051" type="line"/>
      <point x="838" y="922" type="line" smooth="yes"/>
      <point x="838" y="876"/>
      <point x="857" y="857"/>
      <point x="913" y="857" type="curve" smooth="yes"/>
      <point x="969" y="857"/>
      <point x="988" y="876"/>
      <point x="988" y="922" type="curve" smooth="yes"/>
      <point x="988" y="1119" type="line" smooth="yes"/>
      <point x="988" y="1169"/>
      <point x="970" y="1187"/>
      <point x="925" y="1187" type="curve" smooth="yes"/>
    </contour>
    <contour>
      <point x="423" y="694"/>
      <point x="458" y="668"/>
      <point x="497" y="644" type="curve" smooth="yes"/>
      <point x="791" y="462" type="line" smooth="yes"/>
      <point x="855" y="422"/>
      <point x="891" y="388"/>
      <point x="891" y="332" type="curve" smooth="yes"/>
      <point x="891" y="293"/>
      <point x="871" y="263"/>
      <point x="833" y="233" type="curve"/>
      <point x="804" y="262"/>
      <point x="770" y="289"/>
      <point x="731" y="313" type="curve" smooth="yes"/>
      <point x="437" y="495" type="line" smooth="yes"/>
      <point x="373" y="535"/>
      <point x="337" y="569"/>
      <point x="337" y="625" type="curve" smooth="yes"/>
      <point x="337" y="664"/>
      <point x="357" y="694"/>
      <point x="394" y="723" type="curve"/>
    </contour>
  </outline>
</glyph>
<glyph name="dieresis" format="1">
  <advance width="1228"/>
  <unicode hex="00A8"/>
  <outline>
    <contour>
      <point x="748" y="1363"/>
      <point x="729" y="1344"/>
      <point x="729" y="1298" type="curve" smooth="yes"/>
      <point x="729" y="1168" type="line" smooth="yes"/>
      <point x="729" y="1122"/>
      <point x="748" y="1103"/>
      <point x="824" y="1103" type="curve" smooth="yes"/>
      <point x="900" y="1103"/>
      <point x="919" y="1122"/>
      <point x="919" y="1168" type="curve" smooth="yes"/>
      <point x="919" y="1298" type="line" smooth="yes"/>
      <point x="919" y="1344"/>
      <point x="900" y="1363"/>
      <point x="824" y="1363" type="curve" smooth="yes"/>
    </contour>
    <contour>
      <point x="328" y="1363"/>
      <point x="309" y="1344"/>
      <point x="309" y="1298" type="curve" smooth="yes"/>
      <point x="309" y="1168" type="line" smooth="yes"/>
      <point x="309" y="1122"/>
      <point x="328" y="1103"/>
      <point x="404" y="1103" type="curve" smooth="yes"/>
      <point x="480" y="1103"/>
      <point x="499" y="1122"/>
      <point x="499" y="1168" type="curve" smooth="yes"/>
      <point x="499" y="1298" type="line" smooth="yes"/>
      <point x="499" y="1344"/>
      <point x="480" y="1363"/>
      <point x="404" y="1363" type="curve" smooth="yes"/>
    </contour>
  </outline>
</glyph>
<glyph name="ordfeminine" format="1">
  <advance width="1228"/>
  <unicode hex="00AA"/>
  <outline>
    <contour>
      <point x="521" y="1209"/>
      <point x="412" y="1186"/>
      <point x="324" y="1148" type="curve" smooth="yes"/>
      <point x="296" y="1136"/>
      <point x="284" y="1112"/>
      <point x="300" y="1065" type="curve" smooth="yes"/>
      <point x="314" y="1025"/>
      <point x="340" y="1012"/>
      <point x="368" y="1024" type="curve" smooth="yes"/>
      <point x="450" y="1059"/>
      <point x="544" y="1080"/>
      <point x="622" y="1080" type="curve" smooth="yes"/>
      <point x="735" y="1080"/>
      <point x="782" y="1029"/>
      <point x="782" y="950" type="curve" smooth="yes"/>
      <point x="782" y="899" type="line"/>
      <point x="709" y="919"/>
      <point x="631" y="927"/>
      <point x="548" y="927" type="curve" smooth="yes"/>
      <point x="380" y="927"/>
      <point x="242" y="859"/>
      <point x="242" y="687" type="curve" smooth="yes"/>
      <point x="242" y="541"/>
      <point x="358" y="465"/>
      <point x="512" y="465" type="curve" smooth="yes"/>
      <point x="622" y="465"/>
      <point x="715" y="507"/>
      <point x="794" y="574" type="curve"/>
      <point x="811" y="512"/>
      <point x="872" y="483"/>
      <point x="935" y="483" type="curve" smooth="yes"/>
      <point x="984" y="483" type="line" smooth="yes"/>
      <point x="1019" y="483"/>
      <point x="1033" y="499"/>
      <point x="1033" y="541" type="curve" smooth="yes"/>
      <point x="1033" y="584"/>
      <point x="1019" y="602"/>
      <point x="984" y="602" type="curve" smooth="yes"/>
      <point x="967" y="602" type="line" smooth="yes"/>
      <point x="934" y="602"/>
      <point x="917" y="616"/>
      <point x="917" y="657" type="curve" smooth="yes"/>
      <point x="917" y="954" type="line" smooth="yes"/>
      <point x="917" y="1115"/>
      <point x="816" y="1209"/>
      <point x="622" y="1209" type="curve" smooth="yes"/>
    </contour>
    <contour>
      <point x="638" y="801"/>
      <point x="712" y="792"/>
      <point x="782" y="776" type="curve"/>
      <point x="782" y="707" type="line"/>
      <point x="706" y="632"/>
      <point x="620" y="590"/>
      <point x="516" y="590" type="curve" smooth="yes"/>
      <point x="435" y="590"/>
      <point x="383" y="625"/>
      <point x="383" y="690" type="curve" smooth="yes"/>
      <point x="383" y="772"/>
      <point x="456" y="801"/>
      <point x="559" y="801" type="curve" smooth="yes"/>
    </contour>
  </outline>
</glyph>
<glyph name="registered" format="1">
  <advance width="1228"/>
  <unicode hex="00AE"/>
  <outline>
    <contour>
      <point x="274" y="1209"/>
      <point x="36" y="937"/>
      <point x="36" y="594" type="curve" smooth="yes"/>
      <point x="36" y="251"/>
      <point x="274" y="-22"/>
      <point x="614" y="-22" type="curve" smooth="yes"/>
      <point x="954" y="-22"/>
      <point x="1192" y="251"/>
      <point x="1192" y="594" type="curve" smooth="yes"/>
      <point x="1192" y="937"/>
      <point x="954" y="1209"/>
      <point x="614" y="1209" type="curve" smooth="yes"/>
    </contour>
    <contour>
      <point x="885" y="1089"/>
      <point x="1070" y="880"/>
      <point x="1070" y="594" type="curve" smooth="yes"/>
      <point x="1070" y="308"/>
      <point x="885" y="98"/>
      <point x="614" y="98" type="curve" smooth="yes"/>
      <point x="343" y="98"/>
      <point x="158" y="308"/>
      <point x="158" y="594" type="curve" smooth="yes"/>
      <point x="158" y="880"/>
      <point x="343" y="1089"/>
      <point x="614" y="1089" type="curve" smooth="yes"/>
    </contour>
    <contour>
      <point x="450" y="917" type="line" smooth="yes"/>
      <point x="405" y="917"/>
      <point x="385" y="899"/>
      <point x="385" y="854" type="curve" smooth="yes"/>
      <point x="385" y="335" type="line" smooth="yes"/>
      <point x="385" y="289"/>
      <point x="400" y="270"/>
      <point x="446" y="270" type="curve" smooth="yes"/>
      <point x="492" y="270"/>
      <point x="509" y="289"/>
      <point x="509" y="335" type="curve" smooth="yes"/>
      <point x="509" y="470" type="line"/>
      <point x="598" y="470" type="line"/>
      <point x="756" y="288" type="line" smooth="yes"/>
      <point x="779" y="261"/>
      <point x="813" y="255"/>
      <point x="845" y="284" type="curve" smooth="yes"/>
      <point x="879" y="315"/>
      <point x="871" y="345"/>
      <point x="841" y="378" type="curve" smooth="yes"/>
      <point x="734" y="494" type="line"/>
      <point x="826" y="525"/>
      <point x="879" y="596"/>
      <point x="879" y="695" type="curve" smooth="yes"/>
      <point x="879" y="825"/>
      <point x="785" y="917"/>
      <point x="637" y="917" type="curve" smooth="yes"/>
    </contour>
    <contour>
      <point x="707" y="800"/>
      <point x="749" y="760"/>
      <point x="749" y="695" type="curve" smooth="yes"/>
      <point x="749" y="627"/>
      <point x="705" y="587"/>
      <point x="615" y="587" type="curve" smooth="yes"/>
      <point x="509" y="587" type="line"/>
      <point x="509" y="800" type="line"/>
      <point x="624" y="800" type="line" smooth="yes"/>
    </contour>
  </outline>
</glyph>
<glyph name="twosuperior" format="1">
  <advance width="1228"/>
  <unicode hex="00B2"/>
  <outline>
    <contour>
      <point x="520" y="1334"/>
      <point x="412" y="1305"/>
      <point x="332" y="1252" type="curve" smooth="yes"/>
      <point x="319" y="1243"/>
      <point x="311" y="1229"/>
      <point x="311" y="1210" type="curve" smooth="yes"/>
      <point x="311" y="1063" type="line" smooth="yes"/>
      <point x="311" y="1030"/>
      <point x="329" y="1012"/>
      <point x="378" y="1012" type="curve" smooth="yes"/>
      <point x="428" y="1012"/>
      <point x="446" y="1030"/>
      <point x="446" y="1063" type="curve" smooth="yes"/>
      <point x="446" y="1166" type="line"/>
      <point x="491" y="1190"/>
      <point x="550" y="1205"/>
      <point x="607" y="1205" type="curve" smooth="yes"/>
      <point x="708" y="1205"/>
      <point x="761" y="1154"/>
      <point x="761" y="1078" type="curve" smooth="yes"/>
      <point x="761" y="1010"/>
      <point x="723" y="961"/>
      <point x="651" y="900" type="curve" smooth="yes"/>
      <point x="319" y="620" type="line" smooth="yes"/>
      <point x="300" y="604"/>
      <point x="288" y="584"/>
      <point x="288" y="555" type="curve" smooth="yes"/>
      <point x="288" y="509"/>
      <point x="303" y="483"/>
      <point x="335" y="483" type="curve" smooth="yes"/>
      <point x="906" y="483" type="line" smooth="yes"/>
      <point x="938" y="483"/>
      <point x="956" y="501"/>
      <point x="956" y="536" type="curve" smooth="yes"/>
      <point x="956" y="686" type="line" smooth="yes"/>
      <point x="956" y="719"/>
      <point x="938" y="737"/>
      <point x="889" y="737" type="curve" smooth="yes"/>
      <point x="839" y="737"/>
      <point x="821" y="719"/>
      <point x="821" y="686" type="curve" smooth="yes"/>
      <point x="821" y="608" type="line"/>
      <point x="499" y="608" type="line"/>
      <point x="738" y="806" type="line" smooth="yes"/>
      <point x="844" y="894"/>
      <point x="901" y="971"/>
      <point x="901" y="1078" type="curve" smooth="yes"/>
      <point x="901" y="1233"/>
      <point x="794" y="1334"/>
      <point x="616" y="1334" type="curve" smooth="yes"/>
    </contour>
  </outline>
</glyph>
<glyph name="acute" format="1">
  <advance width="1228"/>
  <unicode hex="00B4"/>
  <outline>
    <contour>
      <point x="421" y="1133" type="line"/>
      <point x="398" y="1120"/>
      <point x="393" y="1094"/>
      <point x="402" y="1071" type="curve" smooth="yes"/>
      <point x="411" y="1048"/>
      <point x="432" y="1031"/>
      <point x="457" y="1039" type="curve" smooth="yes"/>
      <point x="938" y="1202" type="line" smooth="yes"/>
      <point x="965" y="1211"/>
      <point x="977" y="1238"/>
      <point x="938" y="1309" type="curve" smooth="yes"/>
      <point x="896" y="1384"/>
      <point x="871" y="1382"/>
      <point x="837" y="1363" type="curve" smooth="yes"/>
    </contour>
  </outline>
</glyph>
<glyph name="paragraph" format="1">
  <advance width="1228"/>
  <unicode hex="00B6"/>
  <outline>
    <contour>
      <point x="548" y="1187" type="line" smooth="yes"/>
      <point x="303" y="1187"/>
      <point x="131" y="1060"/>
      <point x="131" y="844" type="curve" smooth="yes"/>
      <point x="131" y="635"/>
      <point x="293" y="509"/>
      <point x="526" y="502" type="curve"/>
      <point x="526" y="-345" type="line" smooth="yes"/>
      <point x="526" y="-391"/>
      <point x="545" y="-410"/>
      <point x="601" y="-410" type="curve" smooth="yes"/>
      <point x="657" y="-410"/>
      <point x="676" y="-391"/>
      <point x="676" y="-345" type="curve" smooth="yes"/>
      <point x="676" y="1051" type="line"/>
      <point x="836" y="1051" type="line"/>
      <point x="836" y="-345" type="line" smooth="yes"/>
      <point x="836" y="-391"/>
      <point x="855" y="-410"/>
      <point x="911" y="-410" type="curve" smooth="yes"/>
      <point x="967" y="-410"/>
      <point x="986" y="-391"/>
      <point x="986" y="-345" type="curve" smooth="yes"/>
      <point x="986" y="1051" type="line"/>
      <point x="1054" y="1051" type="line" smooth="yes"/>
      <point x="1099" y="1051"/>
      <point x="1117" y="1069"/>
      <point x="1117" y="1119" type="curve" smooth="yes"/>
      <point x="1117" y="1169"/>
      <point x="1099" y="1187"/>
      <point x="1054" y="1187" type="curve" smooth="yes"/>
    </contour>
  </outline>
</glyph>
<glyph name="periodcentered" format="1">
  <advance width="1228"/>
  <unicode hex="00B7"/>
  <outline>
    <contour>
      <point x="521" y="751"/>
      <point x="445" y="675"/>
      <point x="445" y="582" type="curve" smooth="yes"/>
      <point x="445" y="489"/>
      <point x="521" y="413"/>
      <point x="614" y="413" type="curve" smooth="yes"/>
      <point x="707" y="413"/>
      <point x="783" y="489"/>
      <point x="783" y="582" type="curve" smooth="yes"/>
      <point x="783" y="675"/>
      <point x="707" y="751"/>
      <point x="614" y="751" type="curve" smooth="yes"/>
    </contour>
  </outline>
</glyph>
<glyph name="onehalf" format="1">
  <advance width="1228"/>
  <unicode hex="00BD"/>
  <outline>
    <contour>
      <point x="34" y="1315" type="line" smooth="yes"/>
      <point x="4" y="1305"/>
      <point x="-1" y="1284"/>
      <point x="10" y="1250" type="curve" smooth="yes"/>
      <point x="21" y="1219"/>
      <point x="40" y="1208"/>
      <point x="68" y="1217" type="curve" smooth="yes"/>
      <point x="213" y="1264" type="line"/>
      <point x="213" y="788" type="line"/>
      <point x="43" y="788" type="line" smooth="yes"/>
      <point x="16" y="788"/>
      <point x="1" y="773"/>
      <point x="1" y="736" type="curve" smooth="yes"/>
      <point x="1" y="698"/>
      <point x="16" y="683"/>
      <point x="43" y="683" type="curve" smooth="yes"/>
      <point x="488" y="683" type="line" smooth="yes"/>
      <point x="515" y="683"/>
      <point x="529" y="698"/>
      <point x="529" y="736" type="curve" smooth="yes"/>
      <point x="529" y="773"/>
      <point x="515" y="788"/>
      <point x="488" y="788" type="curve" smooth="yes"/>
      <point x="326" y="788" type="line"/>
      <point x="326" y="1359" type="line" smooth="yes"/>
      <point x="326" y="1388"/>
      <point x="301" y="1401"/>
      <point x="271" y="1391" type="curve" smooth="yes"/>
    </contour>
    <contour>
      <point x="863" y="495"/>
      <point x="773" y="471"/>
      <point x="706" y="426" type="curve" smooth="yes"/>
      <point x="695" y="419"/>
      <point x="689" y="407"/>
      <point x="689" y="391" type="curve" smooth="yes"/>
      <point x="689" y="269" type="line" smooth="yes"/>
      <point x="689" y="241"/>
      <point x="704" y="226"/>
      <point x="745" y="226" type="curve" smooth="yes"/>
      <point x="786" y="226"/>
      <point x="801" y="241"/>
      <point x="801" y="269" type="curve" smooth="yes"/>
      <point x="801" y="355" type="line"/>
      <point x="839" y="375"/>
      <point x="888" y="387"/>
      <point x="936" y="387" type="curve" smooth="yes"/>
      <point x="1020" y="387"/>
      <point x="1064" y="345"/>
      <point x="1064" y="281" type="curve" smooth="yes"/>
      <point x="1064" y="224"/>
      <point x="1033" y="183"/>
      <point x="973" y="132" type="curve" smooth="yes"/>
      <point x="695" y="-101" type="line" smooth="yes"/>
      <point x="679" y="-115"/>
      <point x="669" y="-131"/>
      <point x="669" y="-156" type="curve" smooth="yes"/>
      <point x="669" y="-194"/>
      <point x="682" y="-216"/>
      <point x="709" y="-216" type="curve" smooth="yes"/>
      <point x="1186" y="-216" type="line" smooth="yes"/>
      <point x="1212" y="-216"/>
      <point x="1227" y="-201"/>
      <point x="1227" y="-171" type="curve" smooth="yes"/>
      <point x="1227" y="-46" type="line" smooth="yes"/>
      <point x="1227" y="-19"/>
      <point x="1212" y="-4"/>
      <point x="1171" y="-4" type="curve" smooth="yes"/>
      <point x="1130" y="-4"/>
      <point x="1115" y="-19"/>
      <point x="1115" y="-46" type="curve" smooth="yes"/>
      <point x="1115" y="-111" type="line"/>
      <point x="846" y="-111" type="line"/>
      <point x="1045" y="54" type="line" smooth="yes"/>
      <point x="1134" y="127"/>
      <point x="1181" y="192"/>
      <point x="1181" y="281" type="curve" smooth="yes"/>
      <point x="1181" y="411"/>
      <point x="1092" y="495"/>
      <point x="943" y="495" type="curve" smooth="yes"/>
    </contour>
    <contour>
      <point x="125" y="329" type="line" smooth="yes"/>
      <point x="106" y="317"/>
      <point x="106" y="290"/>
      <point x="125" y="264" type="curve" smooth="yes"/>
      <point x="144" y="238"/>
      <point x="168" y="230"/>
      <point x="185" y="240" type="curve" smooth="yes"/>
      <point x="1103" y="801" type="line" smooth="yes"/>
      <point x="1122" y="813"/>
      <point x="1122" y="840"/>
      <point x="1103" y="866" type="curve" smooth="yes"/>
      <point x="1084" y="892"/>
      <point x="1060" y="900"/>
      <point x="1043" y="890" type="curve" smooth="yes"/>
    </contour>
  </outline>
</glyph>
<glyph name="threequarters" format="1">
  <advance width="1228"/>
  <unicode hex="00BE"/>
  <outline>
    <contour>
      <point x="197" y="1395"/>
      <point x="111" y="1377"/>
      <point x="45" y="1337" type="curve" smooth="yes"/>
      <point x="34" y="1331"/>
      <point x="28" y="1318"/>
      <point x="28" y="1302" type="curve" smooth="yes"/>
      <point x="28" y="1210" type="line" smooth="yes"/>
      <point x="28" y="1183"/>
      <point x="43" y="1168"/>
      <point x="84" y="1168" type="curve" smooth="yes"/>
      <point x="125" y="1168"/>
      <point x="140" y="1183"/>
      <point x="140" y="1210" type="curve" smooth="yes"/>
      <point x="140" y="1263" type="line"/>
      <point x="175" y="1278"/>
      <point x="216" y="1287"/>
      <point x="263" y="1287" type="curve" smooth="yes"/>
      <point x="348" y="1287"/>
      <point x="402" y="1254"/>
      <point x="402" y="1188" type="curve" smooth="yes"/>
      <point x="402" y="1115"/>
      <point x="350" y="1087"/>
      <point x="260" y="1087" type="curve" smooth="yes"/>
      <point x="227" y="1087" type="line" smooth="yes"/>
      <point x="201" y="1087"/>
      <point x="191" y="1063"/>
      <point x="191" y="1034" type="curve" smooth="yes"/>
      <point x="191" y="1004"/>
      <point x="201" y="982"/>
      <point x="227" y="982" type="curve" smooth="yes"/>
      <point x="271" y="982" type="line" smooth="yes"/>
      <point x="362" y="982"/>
      <point x="424" y="960"/>
      <point x="424" y="882" type="curve" smooth="yes"/>
      <point x="424" y="815"/>
      <point x="367" y="777"/>
      <point x="267" y="777" type="curve" smooth="yes"/>
      <point x="205" y="777"/>
      <point x="138" y="796"/>
      <point x="84" y="824" type="curve" smooth="yes"/>
      <point x="55" y="836"/>
      <point x="37" y="815"/>
      <point x="27" y="788" type="curve" smooth="yes"/>
      <point x="18" y="763"/>
      <point x="15" y="736"/>
      <point x="39" y="724" type="curve" smooth="yes"/>
      <point x="107" y="686"/>
      <point x="195" y="669"/>
      <point x="273" y="669" type="curve" smooth="yes"/>
      <point x="453" y="669"/>
      <point x="541" y="753"/>
      <point x="541" y="881" type="curve" smooth="yes"/>
      <point x="541" y="966"/>
      <point x="496" y="1021"/>
      <point x="425" y="1045" type="curve"/>
      <point x="484" y="1077"/>
      <point x="519" y="1126"/>
      <point x="519" y="1196" type="curve" smooth="yes"/>
      <point x="519" y="1313"/>
      <point x="426" y="1395"/>
      <point x="272" y="1395" type="curve" smooth="yes"/>
    </contour>
    <contour>
      <point x="998" y="495"/>
      <point x="980" y="482"/>
      <point x="961" y="458" type="curve" smooth="yes"/>
      <point x="644" y="81" type="line" smooth="yes"/>
      <point x="634" y="67"/>
      <point x="630" y="56"/>
      <point x="630" y="36" type="curve" smooth="yes"/>
      <point x="630" y="-9"/>
      <point x="649" y="-29"/>
      <point x="675" y="-29" type="curve" smooth="yes"/>
      <point x="989" y="-29" type="line"/>
      <point x="989" y="-182" type="line" smooth="yes"/>
      <point x="989" y="-208"/>
      <point x="1005" y="-222"/>
      <point x="1046" y="-222" type="curve" smooth="yes"/>
      <point x="1088" y="-222"/>
      <point x="1102" y="-208"/>
      <point x="1102" y="-182" type="curve" smooth="yes"/>
      <point x="1102" y="-29" type="line"/>
      <point x="1193" y="-29" type="line" smooth="yes"/>
      <point x="1219" y="-29"/>
      <point x="1233" y="-14"/>
      <point x="1233" y="24" type="curve" smooth="yes"/>
      <point x="1233" y="62"/>
      <point x="1219" y="76"/>
      <point x="1193" y="76" type="curve" smooth="yes"/>
      <point x="1102" y="76" type="line"/>
      <point x="1102" y="448" type="line" smooth="yes"/>
      <point x="1102" y="476"/>
      <point x="1065" y="495"/>
      <point x="1028" y="495" type="curve" smooth="yes"/>
    </contour>
    <contour>
      <point x="989" y="76" type="line"/>
      <point x="773" y="76" type="line"/>
      <point x="994" y="342" type="line"/>
    </contour>
    <contour>
      <point x="125" y="289" type="line" smooth="yes"/>
      <point x="106" y="277"/>
      <point x="106" y="250"/>
      <point x="125" y="224" type="curve" smooth="yes"/>
      <point x="144" y="198"/>
      <point x="168" y="190"/>
      <point x="185" y="200" type="curve" smooth="yes"/>
      <point x="1103" y="761" type="line" smooth="yes"/>
      <point x="1122" y="773"/>
      <point x="1122" y="800"/>
      <point x="1103" y="826" type="curve" smooth="yes"/>
      <point x="1084" y="852"/>
      <point x="1060" y="860"/>
      <point x="1043" y="850" type="curve" smooth="yes"/>
    </contour>
  </outline>
</glyph>
<glyph name="questiondown" format="1">
  <advance width="1228"/>
  <unicode hex="00BF"/>
  <outline>
    <contour>
      <point x="612" y="565"/>
      <point x="587" y="545"/>
      <point x="585" y="514" type="curve" smooth="yes"/>
      <point x="575" y="373" type="line"/>
      <point x="369" y="289"/>
      <point x="258" y="207"/>
      <point x="258" y="28" type="curve" smooth="yes"/>
      <point x="258" y="-157"/>
      <point x="389" y="-285"/>
      <point x="610" y="-285" type="curve" smooth="yes"/>
      <point x="732" y="-285"/>
      <point x="848" y="-255"/>
      <point x="949" y="-194" type="curve" smooth="yes"/>
      <point x="967" y="-183"/>
      <point x="974" y="-166"/>
      <point x="974" y="-138" type="curve" smooth="yes"/>
      <point x="974" y="-11" type="line" smooth="yes"/>
      <point x="974" y="35"/>
      <point x="955" y="54"/>
      <point x="899" y="54" type="curve" smooth="yes"/>
      <point x="843" y="54"/>
      <point x="824" y="35"/>
      <point x="824" y="-11" type="curve" smooth="yes"/>
      <point x="824" y="-100" type="line"/>
      <point x="762" y="-126"/>
      <point x="690" y="-137"/>
      <point x="609" y="-137" type="curve" smooth="yes"/>
      <point x="484" y="-137"/>
      <point x="416" y="-69"/>
      <point x="416" y="28" type="curve" smooth="yes"/>
      <point x="416" y="128"/>
      <point x="482" y="178"/>
      <point x="634" y="240" type="curve" smooth="yes"/>
      <point x="703" y="268" type="line" smooth="yes"/>
      <point x="726" y="277"/>
      <point x="734" y="293"/>
      <point x="733" y="319" type="curve" smooth="yes"/>
      <point x="723" y="514" type="line" smooth="yes"/>
      <point x="721" y="545"/>
      <point x="696" y="565"/>
      <point x="654" y="565" type="curve" smooth="yes"/>
    </contour>
    <contour>
      <point x="578" y="946"/>
      <point x="516" y="884"/>
      <point x="516" y="808" type="curve" smooth="yes"/>
      <point x="516" y="732"/>
      <point x="578" y="670"/>
      <point x="654" y="670" type="curve" smooth="yes"/>
      <point x="730" y="670"/>
      <point x="792" y="732"/>
      <point x="792" y="808" type="curve" smooth="yes"/>
      <point x="792" y="884"/>
      <point x="730" y="946"/>
      <point x="654" y="946" type="curve" smooth="yes"/>
    </contour>
  </outline>
</glyph>
<glyph name="eth" format="1">
  <advance width="1228"/>
  <unicode hex="00F0"/>
  <outline>
    <contour>
      <point x="342" y="886"/>
      <point x="140" y="704"/>
      <point x="140" y="432" type="curve" smooth="yes"/>
      <point x="140" y="160"/>
      <point x="342" y="-22"/>
      <point x="614" y="-22" type="curve" smooth="yes"/>
      <point x="886" y="-22"/>
      <point x="1088" y="160"/>
      <point x="1088" y="432" type="curve"/>
      <point x="902" y="774" type="line"/>
      <point x="822" y="836"/>
      <point x="726" y="886"/>
      <point x="614" y="886" type="curve" smooth="yes"/>
    </contour>
    <contour>
      <point x="804" y="738"/>
      <point x="930" y="617"/>
      <point x="930" y="432" type="curve" smooth="yes"/>
      <point x="930" y="247"/>
      <point x="804" y="126"/>
      <point x="614" y="126" type="curve" smooth="yes"/>
      <point x="424" y="126"/>
      <point x="298" y="247"/>
      <point x="298" y="432" type="curve" smooth="yes"/>
      <point x="298" y="617"/>
      <point x="424" y="738"/>
      <point x="614" y="738" type="curve" smooth="yes"/>
    </contour>
    <contour>
      <point x="413" y="1343"/>
      <point x="383" y="1331"/>
      <point x="360" y="1287" type="curve" smooth="yes"/>
      <point x="337" y="1243"/>
      <point x="342" y="1215"/>
      <point x="383" y="1195" type="curve" smooth="yes"/>
      <point x="703" y="1038"/>
      <point x="953" y="813"/>
      <point x="953" y="443" type="curve"/>
      <point x="1088" y="432" type="line"/>
      <point x="1088" y="884"/>
      <point x="806" y="1149"/>
      <point x="453" y="1323" type="curve" smooth="yes"/>
    </contour>
    <contour>
      <point x="356" y="1074" type="line" smooth="yes"/>
      <point x="314" y="1058"/>
      <point x="303" y="1034"/>
      <point x="321" y="988" type="curve" smooth="yes"/>
      <point x="339" y="941"/>
      <point x="362" y="930"/>
      <point x="404" y="946" type="curve" smooth="yes"/>
      <point x="959" y="1154" type="line" smooth="yes"/>
      <point x="1001" y="1170"/>
      <point x="1012" y="1194"/>
      <point x="994" y="1240" type="curve" smooth="yes"/>
      <point x="976" y="1287"/>
      <point x="953" y="1298"/>
      <point x="911" y="1282" type="curve" smooth="yes"/>
    </contour>
  </outline>
</glyph>
<glyph name="dcaron" format="1">
  <advance width="1228"/>
  <unicode hex="010F"/>
  <outline>
    <contour>
      <point x="614" y="1312" type="line" smooth="yes"/>
      <point x="569" y="1312"/>
      <point x="551" y="1294"/>
      <point x="551" y="1244" type="curve" smooth="yes"/>
      <point x="551" y="1194"/>
      <point x="569" y="1176"/>
      <point x="614" y="1176" type="curve" smooth="yes"/>
      <point x="776" y="1176" type="line"/>
      <point x="776" y="785" type="line"/>
      <point x="716" y="884"/>
      <point x="630" y="946"/>
      <point x="509" y="946" type="curve" smooth="yes"/>
      <point x="292" y="946"/>
      <point x="127" y="764"/>
      <point x="127" y="462" type="curve" smooth="yes"/>
      <point x="127" y="160"/>
      <point x="292" y="-22"/>
      <point x="509" y="-22" type="curve" smooth="yes"/>
      <point x="639" y="-22"/>
      <point x="726" y="46"/>
      <point x="786" y="143" type="curve"/>
      <point x="786" y="68" type="line" smooth="yes"/>
      <point x="786" y="18"/>
      <point x="804" y="0"/>
      <point x="849" y="0" type="curve" smooth="yes"/>
      <point x="1008" y="0" type="line" smooth="yes"/>
      <point x="1053" y="0"/>
      <point x="1071" y="18"/>
      <point x="1071" y="68" type="curve" smooth="yes"/>
      <point x="1071" y="118"/>
      <point x="1053" y="136"/>
      <point x="1008" y="136" type="curve" smooth="yes"/>
      <point x="926" y="136" type="line"/>
      <point x="926" y="1244" type="line" smooth="yes"/>
      <point x="926" y="1294"/>
      <point x="908" y="1312"/>
      <point x="863" y="1312" type="curve" smooth="yes"/>
    </contour>
    <contour>
      <point x="676" y="798"/>
      <point x="776" y="674"/>
      <point x="776" y="462" type="curve" smooth="yes"/>
      <point x="776" y="250"/>
      <point x="676" y="126"/>
      <point x="519" y="126" type="curve" smooth="yes"/>
      <point x="368" y="126"/>
      <point x="285" y="266"/>
      <point x="285" y="462" type="curve" smooth="yes"/>
      <point x="285" y="658"/>
      <point x="368" y="798"/>
      <point x="519" y="798" type="curve" smooth="yes"/>
    </contour>
    <component base="caron.alt" xOffset="807"/>
  </outline>
</glyph>
<glyph name="dcroat" format="1">
  <advance width="1228"/>
  <unicode hex="0111"/>
  <outline>
    <contour>
      <point x="694" y="1312" type="line" smooth="yes"/>
      <point x="649" y="1312"/>
      <point x="631" y="1294"/>
      <point x="631" y="1244" type="curve" smooth="yes"/>
      <point x="631" y="1194"/>
      <point x="649" y="1176"/>
      <point x="694" y="1176" type="curve" smooth="yes"/>
      <point x="856" y="1176" type="line"/>
      <point x="856" y="674" type="line"/>
      <point x="884" y="702" type="line"/>
      <point x="805" y="815"/>
      <point x="700" y="886"/>
      <point x="559" y="886" type="curve" smooth="yes"/>
      <point x="324" y="886"/>
      <point x="149" y="716"/>
      <point x="149" y="432" type="curve" smooth="yes"/>
      <point x="149" y="148"/>
      <point x="324" y="-22"/>
      <point x="559" y="-22" type="curve" smooth="yes"/>
      <point x="700" y="-22"/>
      <point x="814" y="53"/>
      <point x="894" y="178" type="curve"/>
      <point x="866" y="205" type="line"/>
      <point x="866" y="68" type="line" smooth="yes"/>
      <point x="866" y="18"/>
      <point x="884" y="0"/>
      <point x="929" y="0" type="curve" smooth="yes"/>
      <point x="1088" y="0" type="line" smooth="yes"/>
      <point x="1133" y="0"/>
      <point x="1151" y="18"/>
      <point x="1151" y="68" type="curve" smooth="yes"/>
      <point x="1151" y="118"/>
      <point x="1133" y="136"/>
      <point x="1088" y="136" type="curve" smooth="yes"/>
      <point x="1006" y="136" type="line"/>
      <point x="1006" y="1244" type="line" smooth="yes"/>
      <point x="1006" y="1294"/>
      <point x="988" y="1312"/>
      <point x="943" y="1312" type="curve" smooth="yes"/>
    </contour>
    <contour>
      <point x="734" y="738"/>
      <point x="856" y="626"/>
      <point x="856" y="432" type="curve" smooth="yes"/>
      <point x="856" y="238"/>
      <point x="734" y="126"/>
      <point x="569" y="126" type="curve" smooth="yes"/>
      <point x="400" y="126"/>
      <point x="303" y="254"/>
      <point x="303" y="432" type="curve" smooth="yes"/>
      <point x="303" y="610"/>
      <point x="400" y="738"/>
      <point x="569" y="738" type="curve" smooth="yes"/>
    </contour>
    <contour>
      <point x="553" y="1106" type="line" smooth="yes"/>
      <point x="508" y="1106"/>
      <point x="490" y="1088"/>
      <point x="490" y="1038" type="curve" smooth="yes"/>
      <point x="490" y="988"/>
      <point x="508" y="970"/>
      <point x="553" y="970" type="curve" smooth="yes"/>
      <point x="1115" y="970" type="line" smooth="yes"/>
      <point x="1160" y="970"/>
      <point x="1178" y="988"/>
      <point x="1178" y="1038" type="curve" smooth="yes"/>
      <point x="1178" y="1088"/>
      <point x="1160" y="1106"/>
      <point x="1115" y="1106" type="curve" smooth="yes"/>
    </contour>
  </outline>
</glyph>
<glyph name="hbar" format="1">
  <advance width="1228"/>
  <unicode hex="0127"/>
  <outline>
    <contour>
      <point x="140" y="1312" type="line" smooth="yes"/>
      <point x="95" y="1312"/>
      <point x="77" y="1294"/>
      <point x="77" y="1244" type="curve" smooth="yes"/>
      <point x="77" y="1194"/>
      <point x="95" y="1176"/>
      <point x="140" y="1176" type="curve" smooth="yes"/>
      <point x="232" y="1176" type="line"/>
      <point x="232" y="136" type="line"/>
      <point x="150" y="136" type="line" smooth="yes"/>
      <point x="105" y="136"/>
      <point x="87" y="118"/>
      <point x="87" y="68" type="curve" smooth="yes"/>
      <point x="87" y="18"/>
      <point x="105" y="0"/>
      <point x="150" y="0" type="curve" smooth="yes"/>
      <point x="474" y="0" type="line" smooth="yes"/>
      <point x="519" y="0"/>
      <point x="537" y="18"/>
      <point x="537" y="68" type="curve" smooth="yes"/>
      <point x="537" y="118"/>
      <point x="519" y="136"/>
      <point x="474" y="136" type="curve" smooth="yes"/>
      <point x="382" y="136" type="line"/>
      <point x="382" y="362" type="line" smooth="yes"/>
      <point x="382" y="580"/>
      <point x="531" y="738"/>
      <point x="702" y="738" type="curve" smooth="yes"/>
      <point x="811" y="738"/>
      <point x="864" y="660"/>
      <point x="864" y="545" type="curve" smooth="yes"/>
      <point x="864" y="136" type="line"/>
      <point x="772" y="136" type="line" smooth="yes"/>
      <point x="727" y="136"/>
      <point x="709" y="118"/>
      <point x="709" y="68" type="curve" smooth="yes"/>
      <point x="709" y="18"/>
      <point x="727" y="0"/>
      <point x="772" y="0" type="curve" smooth="yes"/>
      <point x="1096" y="0" type="line" smooth="yes"/>
      <point x="1141" y="0"/>
      <point x="1159" y="18"/>
      <point x="1159" y="68" type="curve" smooth="yes"/>
      <point x="1159" y="118"/>
      <point x="1141" y="136"/>
      <point x="1096" y="136" type="curve" smooth="yes"/>
      <point x="1014" y="136" type="line"/>
      <point x="1014" y="560" type="line" smooth="yes"/>
      <point x="1014" y="760"/>
      <point x="901" y="886"/>
      <point x="717" y="886" type="curve" smooth="yes"/>
      <point x="585" y="886"/>
      <point x="468" y="815"/>
      <point x="382" y="686" type="curve"/>
      <point x="382" y="1244" type="line" smooth="yes"/>
      <point x="382" y="1294"/>
      <point x="364" y="1312"/>
      <point x="319" y="1312" type="curve" smooth="yes"/>
    </contour>
    <contour>
      <point x="83" y="1106" type="line" smooth="yes"/>
      <point x="38" y="1106"/>
      <point x="20" y="1088"/>
      <point x="20" y="1038" type="curve" smooth="yes"/>
      <point x="20" y="988"/>
      <point x="38" y="970"/>
      <point x="83" y="970" type="curve" smooth="yes"/>
      <point x="625" y="970" type="line" smooth="yes"/>
      <point x="670" y="970"/>
      <point x="688" y="988"/>
      <point x="688" y="1038" type="curve" smooth="yes"/>
      <point x="688" y="1088"/>
      <point x="670" y="1106"/>
      <point x="625" y="1106" type="curve" smooth="yes"/>
    </contour>
  </outline>
</glyph>
<glyph name="Eng" format="1">
  <advance width="1228"/>
  <unicode hex="014A"/>
  <outline>
    <contour>
      <point x="771" y="1187" type="line" smooth="yes"/>
      <point x="726" y="1187"/>
      <point x="708" y="1169"/>
      <point x="708" y="1119" type="curve" smooth="yes"/>
      <point x="708" y="1069"/>
      <point x="726" y="1051"/>
      <point x="771" y="1051" type="curve" smooth="yes"/>
      <point x="892" y="1051" type="line"/>
      <point x="892" y="311" type="line"/>
      <point x="888" y="311" type="line"/>
      <point x="414" y="1159" type="line" smooth="yes"/>
      <point x="403" y="1178"/>
      <point x="386" y="1187"/>
      <point x="357" y="1187" type="curve" smooth="yes"/>
      <point x="133" y="1187" type="line" smooth="yes"/>
      <point x="88" y="1187"/>
      <point x="70" y="1169"/>
      <point x="70" y="1119" type="curve" smooth="yes"/>
      <point x="70" y="1069"/>
      <point x="88" y="1051"/>
      <point x="133" y="1051" type="curve" smooth="yes"/>
      <point x="210" y="1051" type="line"/>
      <point x="210" y="136" type="line"/>
      <point x="143" y="136" type="line" smooth="yes"/>
      <point x="98" y="136"/>
      <point x="80" y="118"/>
      <point x="80" y="68" type="curve" smooth="yes"/>
      <point x="80" y="18"/>
      <point x="98" y="0"/>
      <point x="143" y="0" type="curve" smooth="yes"/>
      <point x="497" y="0" type="line" smooth="yes"/>
      <point x="542" y="0"/>
      <point x="560" y="18"/>
      <point x="560" y="68" type="curve" smooth="yes"/>
      <point x="560" y="118"/>
      <point x="542" y="136"/>
      <point x="497" y="136" type="curve" smooth="yes"/>
      <point x="356" y="136" type="line"/>
      <point x="356" y="960" type="line"/>
      <point x="360" y="960" type="line"/>
      <point x="892" y="10" type="line"/>
      <point x="892" y="-107" type="line" smooth="yes"/>
      <point x="892" y="-220"/>
      <point x="848" y="-264"/>
      <point x="766" y="-264" type="curve" smooth="yes"/>
      <point x="706" y="-264"/>
      <point x="642" y="-246"/>
      <point x="589" y="-224" type="curve" smooth="yes"/>
      <point x="560" y="-212"/>
      <point x="529" y="-212"/>
      <point x="506" y="-265" type="curve" smooth="yes"/>
      <point x="484" y="-315"/>
      <point x="496" y="-343"/>
      <point x="534" y="-360" type="curve" smooth="yes"/>
      <point x="602" y="-390"/>
      <point x="685" y="-410"/>
      <point x="765" y="-410" type="curve" smooth="yes"/>
      <point x="941" y="-410"/>
      <point x="1038" y="-314"/>
      <point x="1038" y="-135" type="curve" smooth="yes"/>
      <point x="1038" y="1051" type="line"/>
      <point x="1095" y="1051" type="line" smooth="yes"/>
      <point x="1140" y="1051"/>
      <point x="1158" y="1069"/>
      <point x="1158" y="1119" type="curve" smooth="yes"/>
      <point x="1158" y="1169"/>
      <point x="1140" y="1187"/>
      <point x="1095" y="1187" type="curve" smooth="yes"/>
    </contour>
  </outline>
</glyph>
<glyph name="circumflex" format="1">
  <advance width="1228"/>
  <unicode hex="02C6"/>
  <outline>
    <contour>
      <point x="587" y="1396"/>
      <point x="570" y="1389"/>
      <point x="556" y="1376" type="curve" smooth="yes"/>
      <point x="311" y="1143" type="line" smooth="yes"/>
      <point x="287" y="1121"/>
      <point x="291" y="1093"/>
      <point x="318" y="1063" type="curve" smooth="yes"/>
      <point x="344" y="1034"/>
      <point x="370" y="1033"/>
      <point x="393" y="1051" type="curve" smooth="yes"/>
      <point x="614" y="1224" type="line"/>
      <point x="835" y="1051" type="line" smooth="yes"/>
      <point x="858" y="1033"/>
      <point x="884" y="1034"/>
      <point x="910" y="1063" type="curve" smooth="yes"/>
      <point x="937" y="1093"/>
      <point x="941" y="1121"/>
      <point x="917" y="1143" type="curve" smooth="yes"/>
      <point x="672" y="1376" type="line" smooth="yes"/>
      <point x="658" y="1389"/>
      <point x="641" y="1396"/>
      <point x="614" y="1396" type="curve" smooth="yes"/>
    </contour>
  </outline>
</glyph>
<glyph name="caron" format="1">
  <advance width="1228"/>
  <unicode hex="02C7"/>
  <outline>
    <contour>
      <point x="614" y="1215" type="line"/>
      <point x="335" y="1374" type="line" smooth="yes"/>
      <point x="312" y="1387"/>
      <point x="289" y="1374"/>
      <point x="276" y="1353" type="curve" smooth="yes"/>
      <point x="263" y="1332"/>
      <point x="261" y="1305"/>
      <point x="282" y="1287" type="curve" smooth="yes"/>
      <point x="559" y="1055" type="line" smooth="yes"/>
      <point x="574" y="1043"/>
      <point x="593" y="1037"/>
      <point x="614" y="1037" type="curve" smooth="yes"/>
      <point x="635" y="1037"/>
      <point x="654" y="1043"/>
      <point x="669" y="1055" type="curve" smooth="yes"/>
      <point x="946" y="1287" type="line" smooth="yes"/>
      <point x="967" y="1305"/>
      <point x="965" y="1332"/>
      <point x="952" y="1353" type="curve" smooth="yes"/>
      <point x="939" y="1374"/>
      <point x="916" y="1387"/>
      <point x="893" y="1374" type="curve" smooth="yes"/>
    </contour>
  </outline>
</glyph>
<glyph name="breve" format="1">
  <advance width="1228"/>
  <unicode hex="02D8"/>
  <outline>
    <contour>
      <point x="905" y="1358"/>
      <point x="890" y="1352"/>
      <point x="883" y="1338" type="curve" smooth="yes"/>
      <point x="837" y="1248"/>
      <point x="750" y="1215"/>
      <point x="614" y="1215" type="curve" smooth="yes"/>
      <point x="478" y="1215"/>
      <point x="391" y="1248"/>
      <point x="345" y="1338" type="curve" smooth="yes"/>
      <point x="338" y="1352"/>
      <point x="323" y="1358"/>
      <point x="306" y="1358" type="curve" smooth="yes"/>
      <point x="271" y="1358"/>
      <point x="229" y="1332"/>
      <point x="237" y="1298" type="curve" smooth="yes"/>
      <point x="270" y="1160"/>
      <point x="407" y="1071"/>
      <point x="614" y="1071" type="curve" smooth="yes"/>
      <point x="821" y="1071"/>
      <point x="958" y="1160"/>
      <point x="991" y="1298" type="curve" smooth="yes"/>
      <point x="999" y="1332"/>
      <point x="957" y="1358"/>
      <point x="922" y="1358" type="curve" smooth="yes"/>
    </contour>
  </outline>
</glyph>
<glyph name="ring" format="1">
  <advance width="1228"/>
  <unicode hex="02DA"/>
  <outline>
    <contour>
      <point x="474" y="1557"/>
      <point x="368" y="1451"/>
      <point x="368" y="1311" type="curve" smooth="yes"/>
      <point x="368" y="1171"/>
      <point x="474" y="1065"/>
      <point x="614" y="1065" type="curve" smooth="yes"/>
      <point x="754" y="1065"/>
      <point x="860" y="1171"/>
      <point x="860" y="1311" type="curve" smooth="yes"/>
      <point x="860" y="1451"/>
      <point x="754" y="1557"/>
      <point x="614" y="1557" type="curve" smooth="yes"/>
    </contour>
    <contour>
      <point x="683" y="1425"/>
      <point x="728" y="1380"/>
      <point x="728" y="1311" type="curve" smooth="yes"/>
      <point x="728" y="1242"/>
      <point x="683" y="1197"/>
      <point x="614" y="1197" type="curve" smooth="yes"/>
      <point x="545" y="1197"/>
      <point x="500" y="1242"/>
      <point x="500" y="1311" type="curve" smooth="yes"/>
      <point x="500" y="1380"/>
      <point x="545" y="1425"/>
      <point x="614" y="1425" type="curve" smooth="yes"/>
    </contour>
  </outline>
</glyph>
<glyph name="ogonek" format="1">
  <advance width="1228"/>
  <unicode hex="02DB"/>
  <outline>
    <contour>
      <point x="609" y="28" type="line"/>
      <point x="490" y="-69"/>
      <point x="411" y="-168"/>
      <point x="411" y="-281" type="curve" smooth="yes"/>
      <point x="411" y="-397"/>
      <point x="487" y="-472"/>
      <point x="611" y="-472" type="curve" smooth="yes"/>
      <point x="673" y="-472"/>
      <point x="729" y="-462"/>
      <point x="775" y="-446" type="curve" smooth="yes"/>
      <point x="804" y="-436"/>
      <point x="813" y="-415"/>
      <point x="807" y="-374" type="curve" smooth="yes"/>
      <point x="802" y="-337"/>
      <point x="783" y="-322"/>
      <point x="757" y="-326" type="curve" smooth="yes"/>
      <point x="722" y="-332"/>
      <point x="683" y="-336"/>
      <point x="644" y="-336" type="curve" smooth="yes"/>
      <point x="599" y="-336"/>
      <point x="567" y="-310"/>
      <point x="567" y="-261" type="curve" smooth="yes"/>
      <point x="567" y="-182"/>
      <point x="622" y="-98"/>
      <point x="764" y="28" type="curve"/>
    </contour>
  </outline>
</glyph>
<glyph name="tilde" format="1">
  <advance width="1228"/>
  <unicode hex="02DC"/>
  <outline>
    <contour>
      <point x="427" y="1297"/>
      <point x="363" y="1272"/>
      <point x="284" y="1206" type="curve" smooth="yes"/>
      <point x="263" y="1189"/>
      <point x="261" y="1161"/>
      <point x="278" y="1132" type="curve" smooth="yes"/>
      <point x="295" y="1103"/>
      <point x="318" y="1094"/>
      <point x="340" y="1107" type="curve" smooth="yes"/>
      <point x="387" y="1135"/>
      <point x="435" y="1149"/>
      <point x="475" y="1149" type="curve" smooth="yes"/>
      <point x="565" y="1149"/>
      <point x="645" y="1086"/>
      <point x="744" y="1086" type="curve" smooth="yes"/>
      <point x="801" y="1086"/>
      <point x="865" y="1111"/>
      <point x="944" y="1177" type="curve" smooth="yes"/>
      <point x="965" y="1194"/>
      <point x="967" y="1222"/>
      <point x="950" y="1251" type="curve" smooth="yes"/>
      <point x="933" y="1280"/>
      <point x="910" y="1289"/>
      <point x="888" y="1276" type="curve" smooth="yes"/>
      <point x="841" y="1248"/>
      <point x="793" y="1234"/>
      <point x="753" y="1234" type="curve" smooth="yes"/>
      <point x="663" y="1234"/>
      <point x="583" y="1297"/>
      <point x="484" y="1297" type="curve" smooth="yes"/>
    </contour>
  </outline>
</glyph>
<glyph name="quoteright" format="1">
  <advance width="1228"/>
  <unicode hex="2019"/>
  <outline>
    <contour>
      <point x="592" y="1269" type="line" smooth="yes"/>
      <point x="564" y="1269"/>
      <point x="546" y="1255"/>
      <point x="540" y="1229" type="curve" smooth="yes"/>
      <point x="439" y="783" type="line" smooth="yes"/>
      <point x="429" y="741"/>
      <point x="456" y="714"/>
      <point x="501" y="714" type="curve" smooth="yes"/>
      <point x="535" y="714"/>
      <point x="561" y="729"/>
      <point x="575" y="757" type="curve" smooth="yes"/>
      <point x="795" y="1206" type="line" smooth="yes"/>
      <point x="812" y="1241"/>
      <point x="800" y="1269"/>
      <point x="767" y="1269" type="curve" smooth="yes"/>
    </contour>
  </outline>
</glyph>
<glyph name="daggerdbl" format="1">
  <advance width="1228"/>
  <unicode hex="2021"/>
  <outline>
    <contour>
      <point x="564" y="1209"/>
      <point x="546" y="1191"/>
      <point x="546" y="1146" type="curve" smooth="yes"/>
      <point x="546" y="974" type="line"/>
      <point x="353" y="974" type="line" smooth="yes"/>
      <point x="308" y="974"/>
      <point x="290" y="956"/>
      <point x="290" y="906" type="curve" smooth="yes"/>
      <point x="290" y="856"/>
      <point x="308" y="838"/>
      <point x="353" y="838" type="curve" smooth="yes"/>
      <point x="546" y="838" type="line"/>
      <point x="546" y="592" type="line"/>
      <point x="353" y="592" type="line" smooth="yes"/>
      <point x="308" y="592"/>
      <point x="290" y="574"/>
      <point x="290" y="524" type="curve" smooth="yes"/>
      <point x="290" y="474"/>
      <point x="308" y="456"/>
      <point x="353" y="456" type="curve" smooth="yes"/>
      <point x="546" y="456" type="line"/>
      <point x="546" y="284" type="line" smooth="yes"/>
      <point x="546" y="239"/>
      <point x="564" y="221"/>
      <point x="614" y="221" type="curve" smooth="yes"/>
      <point x="664" y="221"/>
      <point x="682" y="239"/>
      <point x="682" y="284" type="curve" smooth="yes"/>
      <point x="682" y="456" type="line"/>
      <point x="875" y="456" type="line" smooth="yes"/>
      <point x="920" y="456"/>
      <point x="938" y="474"/>
      <point x="938" y="524" type="curve" smooth="yes"/>
      <point x="938" y="574"/>
      <point x="920" y="592"/>
      <point x="875" y="592" type="curve" smooth="yes"/>
      <point x="682" y="592" type="line"/>
      <point x="682" y="838" type="line"/>
      <point x="875" y="838" type="line" smooth="yes"/>
      <point x="920" y="838"/>
      <point x="938" y="856"/>
      <point x="938" y="906" type="curve" smooth="yes"/>
      <point x="938" y="956"/>
      <point x="920" y="974"/>
      <point x="875" y="974" type="curve" smooth="yes"/>
      <point x="682" y="974" type="line"/>
      <point x="682" y="1146" type="line" smooth="yes"/>
      <point x="682" y="1191"/>
      <point x="664" y="1209"/>
      <point x="614" y="1209" type="curve" smooth="yes"/>
    </contour>
  </outline>
</glyph>
<glyph name="ellipsis" format="1">
  <advance width="1228"/>
  <unicode hex="2026"/>
  <outline>
    <contour>
      <point x="942" y="244"/>
      <point x="882" y="184"/>
      <point x="882" y="111" type="curve" smooth="yes"/>
      <point x="882" y="38"/>
      <point x="942" y="-22"/>
      <point x="1015" y="-22" type="curve" smooth="yes"/>
      <point x="1088" y="-22"/>
      <point x="1148" y="38"/>
      <point x="1148" y="111" type="curve" smooth="yes"/>
      <point x="1148" y="184"/>
      <point x="1088" y="244"/>
      <point x="1015" y="244" type="curve" smooth="yes"/>
    </contour>
    <contour>
      <point x="140" y="244"/>
      <point x="80" y="184"/>
      <point x="80" y="111" type="curve" smooth="yes"/>
      <point x="80" y="38"/>
      <point x="140" y="-22"/>
      <point x="213" y="-22" type="curve" smooth="yes"/>
      <point x="286" y="-22"/>
      <point x="346" y="38"/>
      <point x="346" y="111" type="curve" smooth="yes"/>
      <point x="346" y="184"/>
      <point x="286" y="244"/>
      <point x="213" y="244" type="curve" smooth="yes"/>
    </contour>
    <contour>
      <point x="541" y="244"/>
      <point x="481" y="184"/>
      <point x="481" y="111" type="curve" smooth="yes"/>
      <point x="481" y="38"/>
      <point x="541" y="-22"/>
      <point x="614" y="-22" type="curve" smooth="yes"/>
      <point x="687" y="-22"/>
      <point x="747" y="38"/>
      <point x="747" y="111" type="curve" smooth="yes"/>
      <point x="747" y="184"/>
      <point x="687" y="244"/>
      <point x="614" y="244" type="curve" smooth="yes"/>
    </contour>
  </outline>
</glyph>
<glyph name="perthousand" format="1">
  <advance width="1228"/>
  <unicode hex="2030"/>
  <outline>
    <contour>
      <point x="129" y="229" type="line" smooth="yes"/>
      <point x="96" y="198"/>
      <point x="98" y="167"/>
      <point x="130" y="134" type="curve" smooth="yes"/>
      <point x="161" y="101"/>
      <point x="192" y="98"/>
      <point x="225" y="129" type="curve" smooth="yes"/>
      <point x="1099" y="959" type="line" smooth="yes"/>
      <point x="1132" y="990"/>
      <point x="1130" y="1021"/>
      <point x="1098" y="1054" type="curve" smooth="yes"/>
      <point x="1067" y="1087"/>
      <point x="1036" y="1090"/>
      <point x="1003" y="1059" type="curve" smooth="yes"/>
    </contour>
    <contour>
      <point x="983" y="396"/>
      <point x="1048" y="331"/>
      <point x="1048" y="252" type="curve" smooth="yes"/>
      <point x="1048" y="173"/>
      <point x="983" y="108"/>
      <point x="904" y="108" type="curve" smooth="yes"/>
      <point x="825" y="108"/>
      <point x="760" y="173"/>
      <point x="760" y="252" type="curve" smooth="yes"/>
      <point x="760" y="331"/>
      <point x="825" y="396"/>
      <point x="904" y="396" type="curve" smooth="yes"/>
    </contour>
    <contour>
      <point x="173" y="1209"/>
      <point x="50" y="1086"/>
      <point x="50" y="935" type="curve" smooth="yes"/>
      <point x="50" y="784"/>
      <point x="173" y="661"/>
      <point x="324" y="661" type="curve" smooth="yes"/>
      <point x="475" y="661"/>
      <point x="598" y="784"/>
      <point x="598" y="935" type="curve" smooth="yes"/>
      <point x="598" y="1086"/>
      <point x="475" y="1209"/>
      <point x="324" y="1209" type="curve" smooth="yes"/>
    </contour>
    <contour>
      <point x="403" y="1079"/>
      <point x="468" y="1014"/>
      <point x="468" y="935" type="curve" smooth="yes"/>
      <point x="468" y="856"/>
      <point x="403" y="791"/>
      <point x="324" y="791" type="curve" smooth="yes"/>
      <point x="245" y="791"/>
      <point x="180" y="856"/>
      <point x="180" y="935" type="curve" smooth="yes"/>
      <point x="180" y="1014"/>
      <point x="245" y="1079"/>
      <point x="324" y="1079" type="curve" smooth="yes"/>
    </contour>
    <contour>
      <point x="1235" y="526"/>
      <point x="1160" y="485"/>
      <point x="1113" y="421" type="curve"/>
      <point x="1065" y="485"/>
      <point x="991" y="526"/>
      <point x="904" y="526" type="curve" smooth="yes"/>
      <point x="753" y="526"/>
      <point x="630" y="403"/>
      <point x="630" y="252" type="curve" smooth="yes"/>
      <point x="630" y="101"/>
      <point x="753" y="-22"/>
      <point x="904" y="-22" type="curve" smooth="yes"/>
      <point x="991" y="-22"/>
      <point x="1065" y="19"/>
      <point x="1113" y="82" type="curve"/>
      <point x="1160" y="19"/>
      <point x="1235" y="-22"/>
      <point x="1322" y="-22" type="curve" smooth="yes"/>
      <point x="1473" y="-22"/>
      <point x="1596" y="101"/>
      <point x="1596" y="252" type="curve" smooth="yes"/>
      <point x="1596" y="403"/>
      <point x="1473" y="526"/>
      <point x="1322" y="526" type="curve" smooth="yes"/>
    </contour>
    <contour>
      <point x="1401" y="396"/>
      <point x="1466" y="331"/>
      <point x="1466" y="252" type="curve" smooth="yes"/>
      <point x="1466" y="173"/>
      <point x="1401" y="108"/>
      <point x="1322" y="108" type="curve" smooth="yes"/>
      <point x="1243" y="108"/>
      <point x="1178" y="173"/>
      <point x="1178" y="252" type="curve" smooth="yes"/>
      <point x="1178" y="331"/>
      <point x="1243" y="396"/>
      <point x="1322" y="396" type="curve" smooth="yes"/>
    </contour>
  </outline>
</glyph>
<glyph name="won" format="1">
  <advance width="1228"/>
  <unicode hex="20A9"/>
  <outline>
    <contour>
      <point x="33" y="750" type="line" smooth="yes"/>
      <point x="-12" y="750"/>
      <point x="-30" y="732"/>
      <point x="-30" y="682" type="curve" smooth="yes"/>
      <point x="-30" y="632"/>
      <point x="-12" y="614"/>
      <point x="33" y="614" type="curve" smooth="yes"/>
      <point x="558" y="614" type="line"/>
      <point x="612" y="664" type="line"/>
      <point x="674" y="614" type="line"/>
      <point x="1195" y="614" type="line" smooth="yes"/>
      <point x="1240" y="614"/>
      <point x="1258" y="632"/>
      <point x="1258" y="682" type="curve" smooth="yes"/>
      <point x="1258" y="732"/>
      <point x="1240" y="750"/>
      <point x="1195" y="750" type="curve" smooth="yes"/>
    </contour>
    <component base="W"/>
  </outline>
</glyph>
<glyph name="partialdiff" format="1">
  <advance width="1228"/>
  <unicode hex="2202"/>
  <outline>
    <contour>
      <point x="578" y="1209"/>
      <point x="510" y="1197"/>
      <point x="447" y="1170" type="curve" smooth="yes"/>
      <point x="421" y="1159"/>
      <point x="406" y="1133"/>
      <point x="425" y="1084" type="curve" smooth="yes"/>
      <point x="447" y="1029"/>
      <point x="470" y="1024"/>
      <point x="494" y="1031" type="curve" smooth="yes"/>
      <point x="548" y="1046"/>
      <point x="597" y="1054"/>
      <point x="641" y="1054" type="curve" smooth="yes"/>
      <point x="818" y="1054"/>
      <point x="908" y="929"/>
      <point x="908" y="724" type="curve" smooth="yes"/>
      <point x="908" y="664"/>
      <point x="900" y="598"/>
      <point x="885" y="526" type="curve"/>
      <point x="829" y="657"/>
      <point x="712" y="731"/>
      <point x="562" y="731" type="curve" smooth="yes"/>
      <point x="337" y="731"/>
      <point x="167" y="573"/>
      <point x="167" y="334" type="curve" smooth="yes"/>
      <point x="167" y="129"/>
      <point x="308" y="-23"/>
      <point x="526" y="-23" type="curve" smooth="yes"/>
      <point x="714" y="-23"/>
      <point x="846" y="66"/>
      <point x="935" y="249" type="curve" smooth="yes"/>
      <point x="1009" y="402"/>
      <point x="1049" y="598"/>
      <point x="1049" y="742" type="curve" smooth="yes"/>
      <point x="1049" y="1068"/>
      <point x="856" y="1209"/>
      <point x="644" y="1209" type="curve" smooth="yes"/>
    </contour>
    <contour>
      <point x="717" y="583"/>
      <point x="810" y="482"/>
      <point x="834" y="353" type="curve"/>
      <point x="769" y="199"/>
      <point x="670" y="127"/>
      <point x="525" y="126" type="curve" smooth="yes"/>
      <point x="402" y="126"/>
      <point x="321" y="208"/>
      <point x="321" y="333" type="curve" smooth="yes"/>
      <point x="321" y="484"/>
      <point x="418" y="583"/>
      <point x="575" y="583" type="curve" smooth="yes"/>
    </contour>
  </outline>
</glyph>
<glyph name="integral" format="1">
  <advance width="1228"/>
  <unicode hex="222B"/>
  <outline>
    <contour>
      <point x="678" y="1517"/>
      <point x="539" y="1358"/>
      <point x="539" y="1109" type="curve" smooth="yes"/>
      <point x="539" y="10" type="line" smooth="yes"/>
      <point x="539" y="-165"/>
      <point x="460" y="-264"/>
      <point x="320" y="-264" type="curve" smooth="yes"/>
      <point x="241" y="-264"/>
      <point x="164" y="-245"/>
      <point x="81" y="-213" type="curve" smooth="yes"/>
      <point x="47" y="-200"/>
      <point x="25" y="-222"/>
      <point x="11" y="-267" type="curve" smooth="yes"/>
      <point x="-3" y="-313"/>
      <point x="7" y="-337"/>
      <point x="43" y="-352" type="curve" smooth="yes"/>
      <point x="124" y="-387"/>
      <point x="222" y="-410"/>
      <point x="322" y="-410" type="curve" smooth="yes"/>
      <point x="550" y="-410"/>
      <point x="689" y="-251"/>
      <point x="689" y="-2" type="curve" smooth="yes"/>
      <point x="689" y="1097" type="line" smooth="yes"/>
      <point x="689" y="1272"/>
      <point x="768" y="1371"/>
      <point x="908" y="1371" type="curve" smooth="yes"/>
      <point x="987" y="1371"/>
      <point x="1064" y="1352"/>
      <point x="1147" y="1320" type="curve" smooth="yes"/>
      <point x="1181" y="1307"/>
      <point x="1203" y="1329"/>
      <point x="1217" y="1374" type="curve" smooth="yes"/>
      <point x="1231" y="1420"/>
      <point x="1221" y="1444"/>
      <point x="1185" y="1459" type="curve" smooth="yes"/>
      <point x="1104" y="1494"/>
      <point x="1006" y="1517"/>
      <point x="906" y="1517" type="curve" smooth="yes"/>
    </contour>
  </outline>
</glyph>
<glyph name="notequal" format="1">
  <advance width="1228"/>
  <unicode hex="2260"/>
  <outline>
    <contour>
      <point x="856" y="1106"/>
      <point x="831" y="1100"/>
      <point x="808" y="1061" type="curve" smooth="yes"/>
      <point x="683" y="850" type="line"/>
      <point x="613" y="714" type="line"/>
      <point x="457" y="450" type="line"/>
      <point x="387" y="314" type="line"/>
      <point x="304" y="173" type="line" smooth="yes"/>
      <point x="280" y="133"/>
      <point x="287" y="107"/>
      <point x="329" y="83" type="curve" smooth="yes"/>
      <point x="372" y="58"/>
      <point x="397" y="64"/>
      <point x="420" y="103" type="curve" smooth="yes"/>
      <point x="544" y="314" type="line"/>
      <point x="615" y="450" type="line"/>
      <point x="770" y="714" type="line"/>
      <point x="841" y="850" type="line"/>
      <point x="924" y="991" type="line" smooth="yes"/>
      <point x="948" y="1031"/>
      <point x="941" y="1057"/>
      <point x="899" y="1081" type="curve" smooth="yes"/>
    </contour>
    <component base="equal"/>
  </outline>
</glyph>
<glyph name="greaterequal" format="1">
  <advance width="1228"/>
  <unicode hex="2265"/>
  <outline>
    <contour>
      <point x="226" y="1136"/>
      <point x="198" y="1128"/>
      <point x="179" y="1079" type="curve" smooth="yes"/>
      <point x="159" y="1028"/>
      <point x="176" y="1003"/>
      <point x="219" y="987" type="curve" smooth="yes"/>
      <point x="832" y="755" type="line"/>
      <point x="219" y="523" type="line"/>
      <point x="176" y="507"/>
      <point x="159" y="482"/>
      <point x="179" y="431" type="curve" smooth="yes"/>
      <point x="198" y="382"/>
      <point x="226" y="374"/>
      <point x="268" y="390" type="curve" smooth="yes"/>
      <point x="1006" y="680" type="line" smooth="yes"/>
      <point x="1039" y="693"/>
      <point x="1058" y="715"/>
      <point x="1058" y="755" type="curve" smooth="yes"/>
      <point x="1058" y="795"/>
      <point x="1039" y="817"/>
      <point x="1006" y="830" type="curve" smooth="yes"/>
      <point x="268" y="1120" type="line" smooth="yes"/>
    </contour>
    <contour>
      <point x="233" y="250" type="line"/>
      <point x="188" y="250"/>
      <point x="170" y="232"/>
      <point x="170" y="182" type="curve" smooth="yes"/>
      <point x="170" y="132"/>
      <point x="188" y="114"/>
      <point x="233" y="114" type="curve" smooth="yes"/>
      <point x="995" y="114" type="line" smooth="yes"/>
      <point x="1040" y="114"/>
      <point x="1058" y="132"/>
      <point x="1058" y="182" type="curve" smooth="yes"/>
      <point x="1058" y="232"/>
      <point x="1040" y="250"/>
      <point x="995" y="250" type="curve" smooth="yes"/>
    </contour>
  </outline>
</glyph>
<glyph name="emdash.alt2" format="1">
  <advance width="1228"/>
  <outline>
    <contour>
      <point x="47" y="650" type="line" smooth="yes"/>
      <point x="2" y="650"/>
      <point x="-16" y="632"/>
      <point x="-16" y="582" type="curve" smooth="yes"/>
      <point x="-16" y="532"/>
      <point x="2" y="514"/>
      <point x="47" y="514" type="curve" smooth="yes"/>
      <point x="2409" y="514" type="line" smooth="yes"/>
      <point x="2454" y="514"/>
      <point x="2472" y="532"/>
      <point x="2472" y="582" type="curve" smooth="yes"/>
      <point x="2472" y="632"/>
      <point x="2454" y="650"/>
      <point x="2409" y="650" type="curve" smooth="yes"/>
    </contour>
  </outline>
</glyph>
<glyph name="period.alt" format="1">
  <advance width="1228"/>
  <outline>
    <contour>
      <point x="821" y="316"/>
      <point x="745" y="240"/>
      <point x="745" y="147" type="curve" smooth="yes"/>
      <point x="745" y="54"/>
      <point x="821" y="-22"/>
      <point x="914" y="-22" type="curve" smooth="yes"/>
      <point x="1007" y="-22"/>
      <point x="1083" y="54"/>
      <point x="1083" y="147" type="curve" smooth="yes"/>
      <point x="1083" y="240"/>
      <point x="1007" y="316"/>
      <point x="914" y="316" type="curve" smooth="yes"/>
    </contour>
  </outline>
</glyph>
<glyph name="semicolon.alt" format="1">
  <advance width="1228"/>
  <outline>
    <contour>
      <point x="830" y="294" type="line" smooth="yes"/>
      <point x="802" y="294"/>
      <point x="784" y="280"/>
      <point x="778" y="254" type="curve" smooth="yes"/>
      <point x="674" y="-228" type="line" smooth="yes"/>
      <point x="665" y="-270"/>
      <point x="698" y="-294"/>
      <point x="734" y="-294" type="curve" smooth="yes"/>
      <point x="760" y="-294"/>
      <point x="786" y="-281"/>
      <point x="800" y="-253" type="curve" smooth="yes"/>
      <point x="1052" y="231" type="line" smooth="yes"/>
      <point x="1070" y="266"/>
      <point x="1057" y="294"/>
      <point x="1024" y="294" type="curve" smooth="yes"/>
    </contour>
    <contour>
      <point x="821" y="946"/>
      <point x="745" y="870"/>
      <point x="745" y="777" type="curve" smooth="yes"/>
      <point x="745" y="684"/>
      <point x="821" y="608"/>
      <point x="914" y="608" type="curve" smooth="yes"/>
      <point x="1007" y="608"/>
      <point x="1083" y="684"/>
      <point x="1083" y="777" type="curve" smooth="yes"/>
      <point x="1083" y="870"/>
      <point x="1007" y="946"/>
      <point x="914" y="946" type="curve" smooth="yes"/>
    </contour>
  </outline>
</glyph>
